<?xml version="1.0" encoding="UTF-8" standalone="no"?>
<!DOCTYPE svg PUBLIC "-//W3C//DTD SVG 1.1//EN" "http://www.w3.org/Graphics/SVG/1.1/DTD/svg11.dtd">
<svg width="100%" height="100%" viewBox="0 0 3361 718" version="1.1" xmlns="http://www.w3.org/2000/svg" xmlns:xlink="http://www.w3.org/1999/xlink" xml:space="preserve" xmlns:serif="http://www.serif.com/" style="fill-rule:evenodd;clip-rule:evenodd;stroke-linejoin:round;stroke-miterlimit:2;">
    <g id="Calque-1" serif:id="Calque 1" transform="matrix(4.16667,0,0,4.16667,0,0)">
        <g transform="matrix(1,0,0,1,0,-157.062)">
            <rect x="76.151" y="157.062" width="8.533" height="15.235" style="fill:white;"/>
        </g>
        <g transform="matrix(1,0,0,1,0,-157.062)">
            <rect x="336.62" y="157.062" width="8.536" height="15.235" style="fill:white;"/>
        </g>
        <g transform="matrix(1,0,0,1,804.45,44.5133)">
            <path d="M0,-14.396C-1.29,-16.624 -3.03,-18.374 -5.25,-19.638C-7.46,-20.903 -9.83,-21.53 -12.391,-21.53C-14.94,-21.517 -17.32,-20.878 -19.54,-19.587C-21.75,-18.312 -23.5,-16.548 -24.771,-14.308C-26.051,-12.062 -26.681,-9.665 -26.67,-7.114C-26.66,-4.583 -26.021,-2.22 -24.73,-0.009C-23.44,2.2 -21.681,3.94 -19.46,5.224C-17.23,6.499 -14.851,7.134 -12.311,7.126C-9.771,7.116 -7.391,6.466 -5.17,5.177C-2.95,3.872 -1.21,2.132 0.06,-0.089C1.34,-2.3 1.96,-4.685 1.96,-7.267C1.949,-9.782 1.3,-12.159 0,-14.396M-1.66,-1.042C-2.75,0.858 -4.261,2.368 -6.15,3.483C-8.07,4.604 -10.11,5.173 -12.28,5.177C-14.471,5.185 -16.521,4.634 -18.46,3.536C-20.4,2.433 -21.92,0.927 -23.03,-0.978C-24.12,-2.888 -24.681,-4.942 -24.69,-7.14C-24.69,-9.351 -24.15,-11.427 -23.061,-13.351C-21.96,-15.284 -20.46,-16.802 -18.53,-17.913C-16.61,-19.028 -14.54,-19.581 -12.341,-19.591C-10.16,-19.597 -8.12,-19.05 -6.221,-17.946C-4.32,-16.849 -2.811,-15.341 -1.71,-13.409C-0.591,-11.487 -0.04,-9.433 -0.03,-7.237C-0.021,-5.019 -0.57,-2.95 -1.66,-1.042" style="fill:rgb(21,157,217);fill-rule:nonzero;"/>
        </g>
        <g transform="matrix(1,0,0,1,798.38,38.6744)">
            <path d="M0,-2.955C0.32,-3.562 0.47,-4.287 0.47,-5.129C0.47,-6.103 0.24,-6.949 -0.2,-7.678C-0.64,-8.41 -1.22,-8.933 -1.93,-9.254C-2.63,-9.574 -3.79,-9.736 -5.39,-9.726L-12.26,-9.711L-12.22,6.781L-9.61,6.776L-9.63,-0.109L-5.5,-0.127C-4.47,-0.131 -3.79,-0.058 -3.44,0.068C-3.09,0.205 -2.83,0.424 -2.64,0.725C-2.45,1.031 -2.33,1.557 -2.28,2.297L-2.15,6.756L0.32,6.75L0.31,2.264C0.31,1.096 0.18,0.272 -0.08,-0.207C-0.34,-0.687 -0.84,-1.105 -1.58,-1.471C-0.771,-2.004 -0.24,-2.506 0,-2.955M-3.09,-2.898C-3.53,-2.617 -4.36,-2.48 -5.59,-2.473L-9.63,-2.461L-9.65,-7.348L-5.44,-7.361C-4.17,-7.361 -3.3,-7.17 -2.83,-6.781C-2.37,-6.392 -2.14,-5.785 -2.13,-4.941C-2.13,-3.982 -2.45,-3.303 -3.09,-2.898" style="fill:rgb(21,157,217);fill-rule:nonzero;"/>
        </g>
        <g transform="matrix(1,0,0,1,60.9222,90.0631)">
            <path d="M0,-90.063L0,-56.457C-6.317,-64.047 -15.835,-68.879 -26.485,-68.879C-45.504,-68.879 -60.922,-53.463 -60.922,-34.438C-60.922,-15.422 -45.504,0 -26.485,0C-15.835,0 -6.317,-4.824 0,-12.424L0,-1.403L8.529,-1.403L8.529,-90.063L0,-90.063ZM-26.485,-7.924C-41.121,-7.924 -52.997,-19.791 -52.997,-34.438C-52.997,-49.082 -41.121,-60.951 -26.485,-60.951C-12.288,-60.951 -0.702,-49.799 0,-35.774L0,-33.098C-0.702,-19.082 -12.288,-7.924 -26.485,-7.924" style="fill:white;fill-rule:nonzero;"/>
        </g>
        <g transform="matrix(1,0,0,1,0,-60.781)">
            <rect x="76.151" y="83.639" width="8.533" height="65.8" style="fill:white;"/>
        </g>
        <g transform="matrix(1,0,0,1,119.411,88.6582)">
            <path d="M0,-67.328C-13.698,-67.328 -20.403,-57.234 -20.403,-57.234L-20.403,-65.8L-28.936,-65.8L-28.936,0L-20.403,0L-20.403,-36.003C-20.125,-52.964 -9.876,-59.851 -1.043,-59.851C8.587,-59.851 20.414,-54.609 20.414,-35.541L20.414,0L28.941,0L28.941,-35.541C28.941,-59.423 14.745,-67.328 0,-67.328" style="fill:white;fill-rule:nonzero;"/>
        </g>
        <g transform="matrix(1,0,0,1,0,-60.781)">
            <rect x="336.62" y="83.639" width="8.536" height="65.8" style="fill:white;"/>
        </g>
        <g transform="matrix(1,0,0,1,379.886,88.6582)">
            <path d="M0,-67.328C-13.705,-67.328 -20.411,-57.234 -20.411,-57.234L-20.411,-65.8L-28.946,-65.8L-28.946,0L-20.411,0L-20.411,-36.003C-20.129,-52.964 -9.882,-59.851 -1.045,-59.851C8.586,-59.851 20.407,-54.609 20.407,-35.541L20.407,0L28.939,0L28.939,-35.541C28.939,-59.423 14.741,-67.328 0,-67.328" style="fill:white;fill-rule:nonzero;"/>
        </g>
        <g transform="matrix(1,0,0,1,498.387,67.3282)">
            <path d="M0,-45.998C-13.704,-45.998 -20.41,-35.904 -20.41,-35.904L-20.41,-67.328L-28.941,-67.328L-28.941,21.33L-20.41,21.33L-20.41,-14.673C-20.129,-31.634 -9.873,-38.521 -1.041,-38.521C8.588,-38.521 20.412,-33.279 20.412,-14.211L20.412,21.33L28.945,21.33L28.945,-14.211C28.945,-38.093 14.74,-45.998 0,-45.998" style="fill:white;fill-rule:nonzero;"/>
        </g>
        <g transform="matrix(1,0,0,1,183.081,88.6582)">
            <path d="M0,-67.328C-13.703,-67.328 -20.408,-57.234 -20.408,-57.234L-20.408,-65.8L-28.937,-65.8L-28.937,0L-20.408,0L-20.408,-36.003C-20.125,-52.964 -9.881,-59.851 -1.044,-59.851C8.587,-59.851 20.417,-54.609 20.417,-35.541L20.417,0L28.944,0L28.944,-35.541C28.944,-59.423 14.743,-67.328 0,-67.328" style="fill:white;fill-rule:nonzero;"/>
        </g>
        <g transform="matrix(1,0,0,1,313.467,88.6582)">
            <path d="M0,-67.267C-12.468,-66.427 -18.578,-57.234 -18.578,-57.234L-18.578,-65.8L-27.11,-65.8L-27.11,0L-18.578,0L-18.578,-36.003C-18.307,-52.47 -8.641,-59.433 0,-59.832L0,-67.267" style="fill:white;fill-rule:nonzero;"/>
        </g>
        <g transform="matrix(1,0,0,1,283.348,55.6221)">
            <path d="M0,0.003C0,-19.022 -15.424,-34.438 -34.441,-34.438C-53.459,-34.438 -68.882,-19.022 -68.882,0.003C-68.882,19.019 -53.459,34.441 -34.441,34.441C-19.416,34.441 -6.639,24.82 -1.937,11.409L-10.496,11.409C-14.76,20.343 -23.879,26.517 -34.441,26.517C-48.005,26.517 -59.183,16.324 -60.756,3.177L-0.127,3.177L-0.251,2.919L-0.127,2.972C-0.042,1.995 0,0.999 0,0.003M-34.441,-26.51C-21.157,-26.51 -10.156,-16.741 -8.229,-3.997L-60.58,-4.415C-58.482,-16.954 -47.573,-26.51 -34.441,-26.51" style="fill:white;fill-rule:nonzero;"/>
        </g>
        <g transform="matrix(1,0,0,1,599.262,55.6221)">
            <path d="M0,0.003C0,-19.022 -15.418,-34.438 -34.441,-34.438C-53.457,-34.438 -68.883,-19.022 -68.883,0.003C-68.883,19.019 -53.457,34.441 -34.441,34.441C-19.413,34.441 -6.637,24.82 -1.93,11.409L-10.494,11.409C-14.754,20.343 -23.879,26.517 -34.441,26.517C-48.004,26.517 -59.182,16.324 -60.754,3.177L-0.125,3.177L-0.246,2.919L-0.125,2.972C-0.041,1.995 0,0.999 0,0.003M-34.441,-26.51C-21.156,-26.51 -10.156,-16.741 -8.227,-3.997L-60.579,-4.415C-58.477,-16.954 -47.578,-26.51 -34.441,-26.51" style="fill:white;fill-rule:nonzero;"/>
        </g>
        <g transform="matrix(1,0,0,1,473.785,65.8)">
            <path d="M0,-42.942L-18.958,-42.942L-18.958,-65.8L-27.492,-65.8L-27.492,-42.942L-41.502,-42.942L-41.502,-34.722L-27.492,-34.722L-27.492,22.858L-18.958,22.858L-18.958,-34.722L0,-34.722L0,-42.942Z" style="fill:white;fill-rule:nonzero;"/>
        </g>
        <g transform="matrix(1,0,0,1,651.012,71.922)">
            <path d="M0,-32.916L8.229,-32.916C8.229,-32.916 8.318,-51.058 -11.469,-50.592C-29.744,-50.158 -33.846,-25.469 -20.293,-18.365C-9.355,-12.627 4.152,-12.611 1.895,2.238C0.338,12.479 -21.93,14.859 -21.93,-3.066L-30.154,-3.066C-30.154,-3.066 -31.176,18.142 -9.564,18.142C8.635,18.142 11.99,1.535 10.01,-6.678C8.033,-14.896 1.947,-19.549 -10.527,-23.24C-23.008,-26.922 -21.469,-38.59 -14.439,-41.978C-7.402,-45.369 -1.119,-40.463 0,-32.916" style="fill:rgb(21,157,217);fill-rule:nonzero;"/>
        </g>
        <g transform="matrix(1,0,0,1,759.073,88.954)">
            <path d="M0,-66.096L-22.309,-13.909L-43.611,-66.096L-55.625,-66.096L-87.039,-26.04L-87.039,-88.954L-95.566,-88.954L-95.566,-0.296L-87.039,-0.296L-87.039,-13.055L-76.385,-26.645L-54.467,-0.296L-44.256,-0.331L-71.412,-32.983L-49.932,-60.385L-26.73,-3.559L-37.992,22.792L-29.309,22.858L8.719,-66.096L0,-66.096Z" style="fill:rgb(21,157,217);fill-rule:nonzero;"/>
        </g>
        <g transform="matrix(1,0,0,1,525.915,127.219)">
            <path d="M0,11.799C0,15.266 1.271,18.292 3.814,20.88C6.356,23.468 9.292,24.762 12.621,24.762C16.247,24.762 19.313,23.48 21.822,20.914C24.33,18.349 25.584,15.152 25.584,11.32C25.584,7.718 24.318,4.656 21.787,2.137C19.257,-0.383 16.225,-1.642 12.689,-1.642C9.224,-1.642 6.242,-0.331 3.746,2.291C1.249,4.913 0,8.083 0,11.799M0.274,25.754L0.274,30.371L-6.566,30.371L-6.566,-19.428L0.206,-19.428L0.206,-2.703C2.029,-4.55 4.031,-5.93 6.209,-6.842C8.386,-7.753 10.752,-8.21 13.306,-8.21C16.179,-8.21 18.738,-7.736 20.984,-6.79C23.229,-5.844 25.299,-4.379 27.191,-2.395C28.947,-0.57 30.293,1.528 31.228,3.899C32.162,6.27 32.63,8.767 32.63,11.389C32.63,17.067 30.76,21.792 27.021,25.566C23.281,29.34 18.572,31.227 12.895,31.227C10.479,31.227 8.203,30.765 6.072,29.841C3.939,28.917 2.007,27.556 0.274,25.754" style="fill:rgb(21,157,217);fill-rule:nonzero;"/>
        </g>
        <g transform="matrix(1,0,0,1,592.194,142.233)">
            <path d="M0,-7.045C-0.844,-10.147 -2.304,-12.546 -4.379,-14.245C-6.453,-15.943 -8.939,-16.793 -11.834,-16.793C-14.799,-16.793 -17.37,-15.921 -19.547,-14.177C-21.725,-12.433 -23.225,-10.056 -24.045,-7.045L0,-7.045ZM-24.25,-0.957C-23.681,2.189 -22.262,4.737 -19.992,6.687C-17.724,8.637 -15.027,9.611 -11.903,9.611C-9.668,9.611 -7.634,9.076 -5.798,8.004C-3.963,6.933 -2.498,5.416 -1.402,3.455L6.225,3.455C4.491,7.628 2.068,10.82 -1.044,13.031C-4.156,15.243 -7.776,16.35 -11.903,16.35C-14.686,16.35 -17.228,15.858 -19.53,14.879C-21.834,13.898 -23.92,12.428 -25.789,10.467C-27.545,8.619 -28.919,6.471 -29.91,4.019C-30.902,1.568 -31.398,-0.935 -31.398,-3.488C-31.398,-6.133 -30.949,-8.607 -30.048,-10.91C-29.146,-13.213 -27.819,-15.311 -26.062,-17.203C-24.193,-19.256 -22.084,-20.8 -19.735,-21.838C-17.387,-22.875 -14.822,-23.395 -12.04,-23.395C-8.734,-23.395 -5.661,-22.625 -2.822,-21.086C0.017,-19.547 2.359,-17.398 4.207,-14.639C5.301,-12.928 6.109,-11.053 6.635,-9.012C7.159,-6.971 7.422,-4.64 7.422,-2.018L7.422,-0.957L-24.25,-0.957Z" style="fill:rgb(21,157,217);fill-rule:nonzero;"/>
        </g>
        <g transform="matrix(1,0,0,1,0,93.084)">
            <rect x="603.747" y="14.707" width="6.704" height="49.799" style="fill:rgb(21,157,217);"/>
        </g>
        <g transform="matrix(1,0,0,1,621.868,152.767)">
            <path d="M0,-14.228C0,-10.419 1.26,-7.228 3.779,-4.652C6.299,-2.075 9.383,-0.787 13.031,-0.787C16.359,-0.787 19.295,-2.081 21.838,-4.668C24.381,-7.256 25.652,-10.283 25.652,-13.749C25.652,-17.443 24.392,-20.607 21.873,-23.241C19.353,-25.874 16.359,-27.191 12.895,-27.191C9.337,-27.191 6.299,-25.937 3.779,-23.428C1.26,-20.92 0,-17.854 0,-14.228M-4.549,7.833L2.668,7.833C3.717,9.588 5.09,10.928 6.789,11.851C8.487,12.775 10.432,13.237 12.621,13.237C16.428,13.237 19.495,12.091 21.821,9.799C24.146,7.507 25.31,4.469 25.31,0.684L25.31,0.206C23.576,2.007 21.645,3.369 19.512,4.293C17.38,5.216 15.105,5.678 12.689,5.678C7.033,5.678 2.337,3.792 -1.402,0.017C-5.143,-3.756 -7.012,-8.482 -7.012,-14.16C-7.012,-16.804 -6.545,-19.313 -5.609,-21.684C-4.675,-24.055 -3.341,-26.142 -1.607,-27.944C0.285,-29.927 2.354,-31.392 4.6,-32.338C6.846,-33.285 9.406,-33.758 12.278,-33.758C14.832,-33.758 17.197,-33.301 19.375,-32.39C21.553,-31.478 23.554,-30.098 25.379,-28.251L25.379,-32.8L32.15,-32.8L32.15,-1.402C32.15,5.142 30.451,10.266 27.055,13.972C23.656,17.677 18.982,19.53 13.031,19.53C8.722,19.53 5.039,18.509 1.983,16.469C-1.072,14.428 -3.25,11.549 -4.549,7.833" style="fill:rgb(21,157,217);fill-rule:nonzero;"/>
        </g>
        <g transform="matrix(1,0,0,1,0,93.084)">
            <path d="M660.134,26.883L666.838,26.883L666.838,64.506L660.134,64.506L660.134,26.883ZM666.838,22.471L660.134,22.471L660.134,14.707L666.838,14.707L666.838,22.471Z" style="fill:rgb(21,157,217);fill-rule:nonzero;"/>
        </g>
        <g transform="matrix(1,0,0,1,704.522,120.822)">
            <path d="M0,36.768L-6.498,36.768L-6.498,32.561C-7.844,34.271 -9.354,35.542 -11.03,36.374C-12.707,37.206 -14.582,37.623 -16.656,37.623C-21.4,37.623 -25.07,36.153 -27.67,33.211C-30.27,30.27 -31.569,26.131 -31.569,20.795L-31.569,-0.855L-24.797,-0.855L-24.797,18.846C-24.797,22.905 -24.078,25.949 -22.643,27.978C-21.205,30.007 -19.051,31.022 -16.178,31.022C-14.399,31.022 -12.814,30.606 -11.424,29.774C-10.033,28.942 -8.928,27.75 -8.105,26.2C-7.605,25.242 -7.246,24.102 -7.029,22.779C-6.812,21.456 -6.703,19.325 -6.703,16.383L-6.703,-0.855L0,-0.855L0,36.768Z" style="fill:rgb(21,157,217);fill-rule:nonzero;"/>
        </g>
        <g transform="matrix(1,0,0,1,734.1,138.333)">
            <path d="M0,0.274C0,-4.309 -0.646,-7.638 -1.941,-9.713C-3.236,-11.788 -5.291,-12.826 -8.107,-12.826C-11.014,-12.826 -13.159,-11.783 -14.545,-9.696C-15.93,-7.61 -16.623,-4.377 -16.623,0.001L-16.623,19.256L-23.053,19.256L-23.053,-18.367L-17.033,-18.367L-17.033,-13.955C-15.783,-15.642 -14.368,-16.901 -12.789,-17.734C-11.209,-18.566 -9.408,-18.982 -7.385,-18.982C-4.658,-18.982 -2.385,-18.457 -0.566,-17.409C1.252,-16.36 2.74,-14.718 3.899,-12.484C5.065,-14.672 6.608,-16.302 8.529,-17.374C10.449,-18.446 12.793,-18.982 15.559,-18.982C19.812,-18.982 23.218,-17.597 25.779,-14.827C28.34,-12.056 29.619,-8.357 29.619,-3.728L29.619,19.256L22.813,19.256L22.813,-2.667C22.813,-5.882 22.109,-8.379 20.701,-10.158C19.293,-11.937 17.329,-12.826 14.811,-12.826C11.879,-12.826 9.772,-11.879 8.49,-9.987C7.208,-8.094 6.566,-4.902 6.566,-0.411L6.566,19.256L0,19.256L0,0.274Z" style="fill:rgb(21,157,217);fill-rule:nonzero;"/>
        </g>
    </g>
</svg>
