<?xml version="1.0" encoding="UTF-8" standalone="no"?><!DOCTYPE svg PUBLIC "-//W3C//DTD SVG 1.1//EN" "http://www.w3.org/Graphics/SVG/1.1/DTD/svg11.dtd"><svg width="100%" height="100%" viewBox="0 0 807 173" version="1.1" xmlns="http://www.w3.org/2000/svg" xmlns:xlink="http://www.w3.org/1999/xlink" xml:space="preserve" xmlns:serif="http://www.serif.com/" style="fill-rule:evenodd;clip-rule:evenodd;stroke-linejoin:round;stroke-miterlimit:2;"><g id="Calque-1" serif:id="Calque 1"><rect x="76.151" y="-0" width="8.533" height="15.235" style="fill:#fff;"/><rect x="336.62" y="-0" width="8.536" height="15.235" style="fill:#fff;"/><path d="M804.45,30.117c-1.29,-2.228 -3.03,-3.978 -5.25,-5.242c-2.21,-1.265 -4.58,-1.892 -7.141,-1.892c-2.549,0.013 -4.929,0.652 -7.149,1.943c-2.21,1.275 -3.96,3.039 -5.231,5.279c-1.28,2.246 -1.91,4.643 -1.899,7.194c0.01,2.531 0.649,4.894 1.94,7.105c1.29,2.209 3.049,3.949 5.27,5.233c2.23,1.275 4.609,1.91 7.149,1.902c2.54,-0.01 4.92,-0.66 7.141,-1.949c2.22,-1.305 3.96,-3.045 5.23,-5.266c1.28,-2.211 1.9,-4.596 1.9,-7.178c-0.011,-2.515 -0.66,-4.892 -1.96,-7.129m-1.66,13.354c-1.09,1.9 -2.601,3.41 -4.49,4.525c-1.92,1.121 -3.96,1.69 -6.13,1.694c-2.191,0.008 -4.241,-0.543 -6.18,-1.641c-1.94,-1.103 -3.46,-2.609 -4.57,-4.514c-1.09,-1.91 -1.651,-3.964 -1.66,-6.162c-0,-2.211 0.54,-4.287 1.629,-6.211c1.101,-1.933 2.601,-3.451 4.531,-4.562c1.92,-1.115 3.99,-1.668 6.189,-1.678c2.181,-0.006 4.221,0.541 6.12,1.645c1.901,1.097 3.41,2.605 4.511,4.537c1.119,1.922 1.67,3.976 1.68,6.172c0.009,2.218 -0.54,4.287 -1.63,6.195" style="fill:#159dd9;fill-rule:nonzero;"/><path d="M798.38,35.719c0.32,-0.607 0.47,-1.332 0.47,-2.174c-0,-0.974 -0.23,-1.82 -0.67,-2.549c-0.44,-0.732 -1.02,-1.255 -1.73,-1.576c-0.7,-0.32 -1.86,-0.482 -3.46,-0.472l-6.87,0.015l0.04,16.492l2.61,-0.005l-0.02,-6.885l4.13,-0.018c1.03,-0.004 1.71,0.069 2.06,0.195c0.35,0.137 0.61,0.356 0.8,0.657c0.19,0.306 0.31,0.832 0.36,1.572l0.13,4.459l2.47,-0.006l-0.01,-4.486c-0,-1.168 -0.13,-1.992 -0.39,-2.471c-0.26,-0.48 -0.76,-0.898 -1.5,-1.264c0.809,-0.533 1.34,-1.035 1.58,-1.484m-3.09,0.057c-0.44,0.281 -1.27,0.418 -2.5,0.425l-4.04,0.012l-0.02,-4.887l4.21,-0.013c1.27,0 2.14,0.191 2.61,0.58c0.46,0.389 0.69,0.996 0.7,1.84c-0,0.959 -0.32,1.638 -0.96,2.043" style="fill:#159dd9;fill-rule:nonzero;"/><path d="M60.922,0l0,33.606c-6.317,-7.59 -15.835,-12.422 -26.485,-12.422c-19.019,0 -34.437,15.416 -34.437,34.441c0,19.016 15.418,34.438 34.437,34.438c10.65,0 20.168,-4.824 26.485,-12.424l0,11.021l8.529,0l0,-88.66l-8.529,0Zm-26.485,82.139c-14.636,0 -26.512,-11.867 -26.512,-26.514c0,-14.644 11.876,-26.513 26.512,-26.513c14.197,0 25.783,11.152 26.485,25.177l0,2.676c-0.702,14.016 -12.288,25.174 -26.485,25.174" style="fill:#fff;fill-rule:nonzero;"/><rect x="76.151" y="22.858" width="8.533" height="65.8" style="fill:#fff;"/><path d="M119.411,21.33c-13.698,0 -20.403,10.094 -20.403,10.094l0,-8.566l-8.533,0l0,65.8l8.533,0l0,-36.003c0.278,-16.961 10.527,-23.848 19.36,-23.848c9.63,0 21.457,5.242 21.457,24.31l0,35.541l8.527,0l-0,-35.541c-0,-23.882 -14.196,-31.787 -28.941,-31.787" style="fill:#fff;fill-rule:nonzero;"/><rect x="336.62" y="22.858" width="8.536" height="65.8" style="fill:#fff;"/><path d="M379.886,21.33c-13.705,0 -20.411,10.094 -20.411,10.094l-0,-8.566l-8.535,0l-0,65.8l8.535,0l-0,-36.003c0.282,-16.961 10.529,-23.848 19.366,-23.848c9.631,0 21.452,5.242 21.452,24.31l-0,35.541l8.532,0l0,-35.541c0,-23.882 -14.198,-31.787 -28.939,-31.787" style="fill:#fff;fill-rule:nonzero;"/><path d="M498.388,21.33c-13.704,0 -20.411,10.094 -20.411,10.094l0,-31.424l-8.53,0l-0,88.658l8.53,0l0,-36.003c0.281,-16.961 10.538,-23.848 19.37,-23.848c9.629,0 21.453,5.242 21.453,24.31l-0,35.541l8.533,0l-0,-35.541c-0,-23.882 -14.206,-31.787 -28.946,-31.787" style="fill:#fff;fill-rule:nonzero;"/><path d="M183.081,21.33c-13.703,0 -20.408,10.094 -20.408,10.094l-0,-8.566l-8.529,0l-0,65.8l8.529,0l-0,-36.003c0.283,-16.961 10.527,-23.848 19.364,-23.848c9.631,0 21.461,5.242 21.461,24.31l-0,35.541l8.527,0l-0,-35.541c-0,-23.882 -14.201,-31.787 -28.944,-31.787" style="fill:#fff;fill-rule:nonzero;"/><path d="M313.467,21.391c-12.468,0.84 -18.578,10.033 -18.578,10.033l0,-8.566l-8.532,0l0,65.8l8.532,0l0,-36.003c0.271,-16.467 9.937,-23.43 18.578,-23.829l0,-7.435" style="fill:#fff;fill-rule:nonzero;"/><path d="M283.348,55.625c0,-19.025 -15.424,-34.441 -34.441,-34.441c-19.018,0 -34.441,15.416 -34.441,34.441c0,19.016 15.423,34.438 34.441,34.438c15.025,0 27.802,-9.621 32.504,-23.032l-8.559,0c-4.264,8.934 -13.383,15.108 -23.945,15.108c-13.564,0 -24.742,-10.193 -26.315,-23.34l60.629,0l-0.124,-0.258l0.124,0.053c0.085,-0.977 0.127,-1.973 0.127,-2.969m-34.441,-26.513c13.284,0 24.285,9.769 26.212,22.513l-52.351,-0.418c2.098,-12.539 13.007,-22.095 26.139,-22.095" style="fill:#fff;fill-rule:nonzero;"/><path d="M599.262,55.625c0,-19.025 -15.418,-34.441 -34.441,-34.441c-19.016,0 -34.442,15.416 -34.442,34.441c0,19.016 15.426,34.438 34.442,34.438c15.028,0 27.804,-9.621 32.511,-23.032l-8.564,0c-4.26,8.934 -13.385,15.108 -23.947,15.108c-13.563,0 -24.741,-10.193 -26.313,-23.34l60.629,0l-0.121,-0.258l0.121,0.053c0.084,-0.977 0.125,-1.973 0.125,-2.969m-34.441,-26.513c13.285,0 24.285,9.769 26.214,22.513l-52.352,-0.418c2.102,-12.539 13.001,-22.095 26.138,-22.095" style="fill:#fff;fill-rule:nonzero;"/><path d="M473.785,22.858l-18.958,0l0,-22.858l-8.534,0l0,22.858l-14.01,0l0,8.22l14.01,0l0,57.58l8.534,0l0,-57.58l18.958,0l0,-8.22Z" style="fill:#fff;fill-rule:nonzero;"/><path d="M651.012,39.006l8.229,0c0,0 0.089,-18.142 -19.698,-17.676c-18.275,0.434 -22.377,25.123 -8.824,32.227c10.938,5.738 24.445,5.754 22.188,20.603c-1.557,10.241 -23.825,12.621 -23.825,-5.304l-8.224,0c0,0 -1.022,21.208 20.59,21.208c18.199,0 21.554,-16.607 19.574,-24.82c-1.977,-8.218 -8.063,-12.871 -20.537,-16.562c-12.481,-3.682 -10.942,-15.35 -3.912,-18.738c7.037,-3.391 13.32,1.515 14.439,9.062" style="fill:#159dd9;fill-rule:nonzero;"/><path d="M759.073,22.858l-22.309,52.187l-21.302,-52.187l-12.014,0l-31.414,40.056l0,-62.914l-8.527,0l0,88.658l8.527,0l0,-12.759l10.654,-13.59l21.918,26.349l10.211,-0.035l-27.156,-32.652l21.48,-27.402l23.202,56.826l-11.262,26.351l8.683,0.066l38.028,-88.954l-8.719,0Z" style="fill:#159dd9;fill-rule:nonzero;"/><text x="546.961px" y="154.866px" style="font-family:'AvantGardeITCbyBT-Medium', 'ITC Avant Garde Gothic';font-weight:500;font-size:65.988px;fill:#159dd9;">france</text></g></svg>