<?xml version="1.0" encoding="UTF-8" standalone="no"?>
<!DOCTYPE svg PUBLIC "-//W3C//DTD SVG 1.1//EN" "http://www.w3.org/Graphics/SVG/1.1/DTD/svg11.dtd">
<svg width="100%" height="100%" viewBox="0 0 243 134" version="1.1" xmlns="http://www.w3.org/2000/svg" xmlns:xlink="http://www.w3.org/1999/xlink" xml:space="preserve" xmlns:serif="http://www.serif.com/" style="fill-rule:evenodd;clip-rule:evenodd;stroke-linejoin:round;stroke-miterlimit:2;">
    <g id="Calque_2" transform="matrix(1,0,0,1,-46,0)">
        <g id="Calque_1-2" transform="matrix(0.699169,0,0,0.699169,50.6158,2.19562)">
            <path d="M82.23,63.27C94,60.16 101.56,50.08 101.56,35.79C101.56,10 77.34,0.25 43.75,0.25C29.082,0.255 14.443,1.543 -0,4.1L0,132.15C12.7,133.62 31.45,134.35 48.44,134.35C82.23,134.35 108.79,124.09 108.79,95.51C108.79,77.51 98.44,68.95 82.23,64.74L82.23,63.27ZM29.1,77.38L48.83,77.38C67.19,77.38 78.52,82.51 78.52,94.23C78.52,105.95 67.38,111.09 48.44,111.09C41.982,111.111 35.527,110.804 29.1,110.17L29.1,77.38ZM29.1,24.43C34.202,23.62 39.365,23.252 44.53,23.33C61.53,23.33 71.68,28.1 71.68,39.27C71.68,49.53 63.09,54.48 48.63,54.48L29.1,54.48L29.1,24.43Z" style="fill:white;fill-rule:nonzero;"/>
            <path d="M192.75,109.84L163.39,109.84C158.56,109.59 150.59,107.48 150.59,101.84L150.59,3.1C147.75,1.58 142.69,0.63 135.39,0.63C128.29,0.63 123.02,1.63 119.98,3.1L119.98,103.27C119.98,122.03 128.48,134.35 152.98,134.35L183.68,134.35L192.75,109.84Z" style="fill:white;fill-rule:nonzero;"/>
            <path d="M288.23,2.51C276.445,0.043 264.275,0.043 252.49,2.51L203.91,134.35L234.16,134.35L245,103.24L294.95,103.24L305.73,134.35L336.54,134.35L288.23,2.51ZM252.3,80.51L259.6,59.21C263.78,46.646 266.95,33.768 269.08,20.7L270.66,20.7C272.83,33.7 275.79,47.18 279.74,58.7L287.24,80.55L252.3,80.51Z" style="fill:white;fill-rule:nonzero;"/>
            <path d="M188.19,3.36L188.19,37.54C191.68,39.48 199.06,40.42 206.03,36.22C204.23,46.22 196.52,49.66 189.1,51.38C189.1,51.38 210.36,59.25 218.1,39.38L218.18,39.38L231.49,3.28C227.23,0.93 220.59,0 210.22,0C199.7,0 192.51,1 188.22,3.36" style="fill:white;fill-rule:nonzero;"/>
        </g>
        <g transform="matrix(0.908418,0,0,0.908418,50.6158,105.916)">
            <path d="M14,14C16.58,13.279 18.314,10.823 18.13,8.15C18.13,3.15 13.65,1.15 7.46,1.15C4.957,1.141 2.459,1.372 -0,1.84L0,28C2.4,28.23 5.46,28.31 8.56,28.31C14.71,28.31 19.49,26.13 19.49,20.62C19.49,16.8 17.2,14.96 13.95,14.16L14,14ZM3.48,15.83L8.72,15.83C13.19,15.83 15.95,17.4 15.95,20.58C15.95,23.76 13.12,25.24 8.3,25.24C6.58,25.24 4.93,25.24 3.48,25.09L3.48,15.83ZM3.48,4.47C4.769,4.258 6.075,4.171 7.38,4.21C11.74,4.21 14.57,5.51 14.57,8.61C14.57,11.4 12.28,12.82 8.72,12.82L3.48,12.82L3.48,4.47ZM28.63,12.74L28.48,12.74L28.22,9.37C27.284,9.342 26.354,9.527 25.5,9.91L25.5,27.91C26.032,28.129 26.607,28.221 27.18,28.18C27.74,28.222 28.303,28.129 28.82,27.91L28.82,16.56C29.82,13.73 31.42,12.24 33.76,12.24C34.585,12.228 35.401,12.424 36.13,12.81C36.302,12.357 36.38,11.874 36.36,11.39C36.391,10.648 36.218,9.911 35.86,9.26C35.228,8.997 34.544,8.88 33.86,8.92C31.434,8.763 29.219,10.373 28.62,12.73L28.63,12.74ZM51.55,26.62C51.812,28.028 53.125,29.013 54.55,28.87C55.436,28.867 56.306,28.629 57.07,28.18C57.591,27.322 57.819,26.318 57.72,25.32C57.184,25.668 56.559,25.855 55.92,25.86C55.16,25.86 54.58,25.55 54.58,24.44L54.58,16.1C54.58,10.86 52.25,8.91 47.7,8.91C45.59,8.858 43.5,9.332 41.62,10.29C41.097,11.314 40.962,12.494 41.24,13.61C42.999,12.525 45.023,11.944 47.09,11.93C50.09,11.93 51.3,13.27 51.3,16.45L51.3,17.45C50.072,17.014 48.773,16.807 47.47,16.84C43.15,16.84 39.83,18.67 39.83,23.15C39.83,27.31 42.69,28.88 45.98,28.88C48.5,28.88 50.26,28.08 51.37,26.63L51.55,26.62ZM51.32,23.86C50.246,25.214 48.575,25.961 46.85,25.86C44.78,25.86 43.17,24.98 43.17,22.99C43.17,21 44.82,19.55 47.99,19.55C49.125,19.543 50.252,19.736 51.32,20.12L51.32,23.86ZM62.57,27.91C63.099,28.138 63.676,28.231 64.25,28.18C64.811,28.232 65.375,28.139 65.89,27.91L65.89,9.91C65.373,9.691 64.81,9.598 64.25,9.64C63.677,9.599 63.102,9.691 62.57,9.91L62.57,27.91ZM64.25,0.91C64.206,0.907 64.162,0.906 64.119,0.906C63.006,0.906 62.081,1.798 62.04,2.91C62.03,3 62.03,3.09 62.04,3.18C61.892,4.259 62.652,5.271 63.73,5.43C63.902,5.455 64.078,5.455 64.25,5.43C64.302,5.434 64.354,5.436 64.406,5.436C65.483,5.436 66.39,4.595 66.47,3.52C66.48,3.39 66.48,3.26 66.47,3.13C66.478,3.058 66.482,2.986 66.482,2.914C66.482,1.873 65.668,0.997 64.63,0.92C64.504,0.91 64.376,0.91 64.25,0.92M76.25,14.92C77.22,13.05 79.195,11.907 81.3,12C84.48,12 85.44,13.87 85.44,16.82L85.44,27.91C85.969,28.139 86.546,28.232 87.12,28.18C87.681,28.231 88.245,28.138 88.76,27.91L88.76,16.18C88.76,9.98 85.36,8.92 82.33,8.92C78.73,8.92 76.83,10.48 75.98,12.24L75.83,12.24L75.6,9.37C74.667,9.343 73.741,9.527 72.89,9.91L72.89,27.91C73.422,28.129 73.997,28.221 74.57,28.18C75.13,28.222 75.693,28.129 76.21,27.91L76.25,14.92ZM110.51,19.92C110.827,18.921 110.983,17.878 110.97,16.83C110.97,12.2 108.63,8.92 103.59,8.92C97.93,8.92 94.49,13.15 94.49,19.08C94.49,25.01 97.89,28.87 104.05,28.87C106.038,28.925 108.005,28.452 109.75,27.5C110.381,26.595 110.678,25.499 110.59,24.4C108.827,25.39 106.831,25.891 104.81,25.85C100.68,25.85 98.08,24.09 97.93,19.92L110.51,19.92ZM97.92,17.14C98.19,13.92 100.14,11.78 103.39,11.78C107.1,11.78 107.9,14.61 107.64,17.14L97.92,17.14ZM116.28,16.14C115.902,17.139 115.718,18.202 115.74,19.27L125.41,19.27C125.59,18.757 125.668,18.213 125.64,17.67C125.669,17.15 125.591,16.629 125.41,16.14L116.28,16.14ZM137.93,28.21C138.504,27.272 138.76,26.175 138.66,25.08C137.987,25.588 137.163,25.859 136.32,25.85C135.21,25.85 134.6,25.43 134.6,23.75L134.6,0C133.449,-0.055 132.304,0.194 131.28,0.72L131.28,24.32C131.28,27.37 132.58,28.86 135.18,28.86C136.143,28.889 137.095,28.65 137.93,28.17M142.74,0.77C142.599,3.317 142.031,5.822 141.06,8.18C141.732,8.828 142.609,9.221 143.54,9.29C144.962,6.442 145.799,3.337 146,0.16C144.886,0.131 143.778,0.339 142.75,0.77M166.88,27.87C167.476,28.112 168.118,28.218 168.76,28.18C169.363,28.222 169.968,28.116 170.52,27.87L160.83,1.46C159.42,1.151 157.96,1.151 156.55,1.46L146.8,27.87C147.338,28.116 147.93,28.223 148.52,28.18C149.159,28.218 149.798,28.112 150.39,27.87L153,20.45L164.16,20.45L166.88,27.87ZM154.07,17.47L156.07,11.7C157.051,9.012 157.869,6.267 158.52,3.48L158.67,3.48C159.311,6.282 160.13,9.041 161.12,11.74L163.12,17.47L154.07,17.47ZM182,28.17C182.572,27.232 182.828,26.134 182.73,25.04C182.057,25.548 181.233,25.819 180.39,25.81C179.28,25.81 178.67,25.39 178.67,23.71L178.67,0C177.519,-0.06 176.373,0.189 175.35,0.72L175.35,24.32C175.35,27.37 176.65,28.86 179.25,28.86C180.213,28.89 181.165,28.651 182,28.17M194.23,28.17C194.804,27.233 195.057,26.134 194.95,25.04C194.281,25.549 193.461,25.82 192.62,25.81C191.51,25.81 190.9,25.39 190.9,23.71L190.9,0C189.749,-0.06 188.603,0.189 187.58,0.72L187.58,24.32C187.58,27.37 188.88,28.86 191.48,28.86C192.443,28.889 193.395,28.65 194.23,28.17M214.54,19.91C214.857,18.911 215.013,17.868 215,16.82C215,12.19 212.67,8.91 207.62,8.91C201.96,8.91 198.53,13.14 198.53,19.07C198.53,25 201.93,28.86 208.08,28.86C210.068,28.916 212.035,28.443 213.78,27.49C214.411,26.585 214.708,25.489 214.62,24.39C212.861,25.38 210.868,25.88 208.85,25.84C204.72,25.84 202.12,24.08 201.96,19.91L214.54,19.91ZM202,17.14C202.27,13.92 204.22,11.78 207.47,11.78C211.18,11.78 211.98,14.61 211.71,17.14L202,17.14ZM233.47,26L233.93,28.4C234.815,28.453 235.699,28.271 236.49,27.87L236.49,9.87C235.97,9.646 235.404,9.553 234.84,9.6C234.267,9.56 233.692,9.652 233.16,9.87L233.16,23.33C232.034,24.955 230.133,25.875 228.16,25.75C225.03,25.75 224.07,24.03 224.07,20.93L224.07,9.46C222.924,9.414 221.783,9.651 220.75,10.15L220.75,21.58C220.75,27.77 224.11,28.88 227.17,28.88C230.92,28.88 232.6,27.32 233.29,26.02L233.47,26ZM255.7,9.64C254.45,9.132 253.109,8.887 251.76,8.92C246.09,8.92 242.43,12.62 242.43,19.47C242.43,25.78 245.6,28.87 250.23,28.87C252.452,29.01 254.6,28.015 255.93,26.23L256.08,26.23L256.54,28.41C257.399,28.446 258.254,28.26 259.02,27.87L259.02,0C257.869,-0.055 256.724,0.194 255.7,0.72L255.7,9.64ZM255.7,23.75C254.552,25.053 252.886,25.786 251.15,25.75C247.7,25.75 245.83,23.53 245.83,19.28C245.83,15.03 247.74,11.86 252.49,11.86C253.591,11.832 254.686,12.04 255.7,12.47L255.7,23.75Z" style="fill:white;fill-rule:nonzero;"/>
        </g>
    </g>
</svg>
