<?xml version="1.0" encoding="UTF-8"?>
<svg version="1.1" xmlns="http://www.w3.org/2000/svg" xmlns:xlink="http://www.w3.org/1999/xlink">
<defs>

</defs>
<symbol id="i-arrow-down" xmlns="http://www.w3.org/2000/svg" viewBox="0 0 32 42"><path d="M18.018 38.386a2.018 2.018 0 01-4.014.297l-.022-.297V3.614a2.018 2.018 0 014.014-.298l.022.298v34.772zm12.448-14.467a2.02 2.02 0 01.213 2.604l-.213.25-13.039 13.04a2.02 2.02 0 01-2.604.212l-.25-.212-13.039-13.04a2.018 2.018 0 012.604-3.067l.25.213 11.614 11.61 11.61-11.61a2.02 2.02 0 012.604-.213l.25.213z" fill="currentColor"/></symbol>
<symbol id="i-arrow-left" xmlns="http://www.w3.org/2000/svg" viewBox="0 0 42 32"><path d="M4.8 18.257a2.018 2.018 0 01-.298-4.014l.298-.022h34.771a2.018 2.018 0 01.298 4.014l-.298.022H4.8zm14.466 12.448a2.02 2.02 0 01-2.604.213l-.25-.213L3.373 17.666a2.02 2.02 0 01-.213-2.604l.213-.25L16.412 1.773a2.018 2.018 0 013.067 2.604l-.213.25L7.657 16.241l11.609 11.61a2.02 2.02 0 01.213 2.604l-.213.25z" fill="currentColor"/></symbol>
<symbol id="i-arrow-outline-left" xmlns="http://www.w3.org/2000/svg" viewBox="0 0 24 24"><g fill="currentColor"><path d="M23.75 12C23.75 5.51 18.49.25 12 .25S.25 5.51.25 12 5.51 23.75 12 23.75 23.75 18.49 23.75 12zm-1.5 0c0 5.66-4.59 10.25-10.25 10.25S1.75 17.66 1.75 12 6.34 1.75 12 1.75 22.25 6.34 22.25 12z"/><path d="M14.28 7.47a.75.75 0 01.073.976l-.073.084L10.811 12l3.47 3.47a.75.75 0 01.072.976l-.073.084a.75.75 0 01-.976.073l-.084-.073-4-4a.75.75 0 01-.073-.976l.073-.084 4-4a.75.75 0 011.06 0z"/></g></symbol>
<symbol id="i-arrow-outline-right" xmlns="http://www.w3.org/2000/svg" viewBox="0 0 24 25"><path d="M7 12.5h10m0 0l-4-4m4 4l-4 4m10-4c0 6.075-4.925 11-11 11s-11-4.925-11-11 4.925-11 11-11 11 4.925 11 11z" stroke="currentColor" stroke-width="1.5" fill="none" stroke-linecap="round" stroke-linejoin="round"/></symbol>
<symbol id="i-arrow-right" xmlns="http://www.w3.org/2000/svg" viewBox="0 0 42 32"><path fill="currentColor" d="M39.571 14.221a2.018 2.018 0 01.298 4.014l-.298.022H4.8a2.018 2.018 0 01-.298-4.014l.298-.022h34.771zM25.105 1.773a2.02 2.02 0 012.604-.213l.25.213 13.039 13.039a2.02 2.02 0 01.213 2.604l-.213.25-13.039 13.039a2.018 2.018 0 01-3.067-2.604l.213-.25 11.609-11.614-11.609-11.61a2.02 2.02 0 01-.213-2.604l.213-.25z"/></symbol>
<symbol id="i-arrow-square" viewBox="0 0 13 13" fill="none" xmlns="http://www.w3.org/2000/svg"><path fill-rule="evenodd" clip-rule="evenodd" d="M.574.997A.5.5 0 011.078.5l10.925.074a.5.5 0 01.497.504l-.075 10.925a.5.5 0 01-1-.006l.067-9.719-10.14 10.003a.5.5 0 01-.703-.711l10.14-10.004L1.072 1.5A.5.5 0 01.574.997z" fill="currentColor"/></symbol>
<symbol id="i-arrow-up" xmlns="http://www.w3.org/2000/svg" viewBox="0 0 32 42"><path d="M13.982 3.615a2.018 2.018 0 014.014-.298l.022.298v34.77a2.018 2.018 0 01-4.014.299l-.022-.298V3.614zM1.534 18.08a2.02 2.02 0 01-.213-2.604l.213-.25 13.039-13.04a2.02 2.02 0 012.604-.212l.25.213 13.039 13.039a2.018 2.018 0 01-2.604 3.067l-.25-.213L15.998 6.47l-11.61 11.61a2.02 2.02 0 01-2.604.213l-.25-.213z" fill="currentColor"/></symbol>
<symbol id="i-bookmark" xmlns="http://www.w3.org/2000/svg" viewBox="0 0 14 16"><path d="M7.225 11.895l.338-.526-.338.526zm-.45 0l-.338-.526.338.526zm-4.966 3.192l.338.526-.338-.526zm10.382 0l-.338.526.338-.526zM3.25 1.958h7.5V.708h-7.5v1.25zm8.958 1.459v11.32h1.25V3.417h-1.25zM1.792 14.737V3.417H.542v11.32h1.25zm10.737-.175l-4.966-3.193-.676 1.052 4.966 3.192.676-1.051zm-6.092-3.193L1.47 14.562l.676 1.051 4.966-3.192-.676-1.052zm1.126 0a1.042 1.042 0 00-1.126 0l.676 1.052a.208.208 0 01-.226 0l.676-1.052zM.542 14.737c0 .824.911 1.322 1.605.876l-.676-1.051c.138-.09.32.01.32.175H.542zm11.666 0c0-.165.183-.265.321-.175l-.676 1.051a1.042 1.042 0 001.605-.876h-1.25zM10.75 1.958c.805 0 1.458.653 1.458 1.459h1.25A2.708 2.708 0 0010.75.708v1.25zM3.25.708A2.708 2.708 0 00.542 3.417h1.25c0-.806.653-1.459 1.458-1.459V.708z" fill="currentColor"/></symbol>
<symbol id="i-check-round" xmlns="http://www.w3.org/2000/svg" viewBox="0 0 22 22"><path d="M15.375 1.18a.75.75 0 11-.61 1.37 9.25 9.25 0 105.478 8.807l.007-.351v-.92a.75.75 0 011.493-.102l.007.102v.92a10.75 10.75 0 11-6.375-9.825zm6.155 1.295a.75.75 0 01.073.977l-.072.084L11 14.076l-3.531-3.53a.75.75 0 01.976-1.133l.084.072L11 11.954l9.47-9.478a.75.75 0 011.061 0z" fill="currentColor"/></symbol>
<symbol id="i-check" xmlns="http://www.w3.org/2000/svg" viewBox="0 0 8 6"><path d="M1 2.667L3.526 5 7 1" stroke="currentColor" stroke-width="1.35" fill="none" stroke-linecap="round" stroke-linejoin="round"/></symbol>
<symbol id="i-checkmark" xmlns="http://www.w3.org/2000/svg" viewBox="0 0 32 32"><path fill="currentColor" d="M0 17.2L3.2 14l8 8L28.8 4.4 32 7.6 11.2 28.4z"/></symbol>
<symbol id="i-chevron-down" xmlns="http://www.w3.org/2000/svg" viewBox="0 0 12 7"><path fill="none" stroke="currentColor" stroke-linecap="round" stroke-linejoin="round" stroke-width="1.5" d="M10.667 1L6 5.667 1.333 1"/></symbol>
<symbol id="i-chevron-left" xmlns="http://www.w3.org/2000/svg" viewBox="0 0 32 32"><path fill="currentColor" d="M20.943 23.724l-7.057-7.057 7.057-7.057a1.332 1.332 0 10-1.885-1.885l-8 8a1.332 1.332 0 000 1.885l8 8a1.332 1.332 0 101.885-1.885z"/></symbol>
<symbol id="i-chevron-outline-left" xmlns="http://www.w3.org/2000/svg" viewBox="0 0 42 42"><path d="M24.5 28l-7-7 7-7M1.75 21C1.75 10.369 10.369 1.75 21 1.75S40.25 10.369 40.25 21 31.631 40.25 21 40.25 1.75 31.631 1.75 21z" stroke="currentColor" stroke-width="2" fill="none" stroke-linecap="round" stroke-linejoin="round"/></symbol>
<symbol id="i-chevron-outline-right" xmlns="http://www.w3.org/2000/svg" viewBox="0 0 42 42"><path d="M17.625 14l7 7-7 7m22.75-7c0 10.631-8.619 19.25-19.25 19.25S1.875 31.631 1.875 21s8.619-19.25 19.25-19.25 19.25 8.619 19.25 19.25z" stroke="currentColor" stroke-width="2" fill="none" stroke-linecap="round" stroke-linejoin="round"/></symbol>
<symbol id="i-chevron-right" xmlns="http://www.w3.org/2000/svg" viewBox="0 0 32 32"><path fill="currentColor" d="M12.943 25.609l8-8a1.332 1.332 0 000-1.885l-8-8a1.332 1.332 0 10-1.885 1.885l7.057 7.057-7.057 7.057a1.332 1.332 0 101.885 1.885z"/></symbol>
<symbol id="i-chevron-up" xmlns="http://www.w3.org/2000/svg" viewBox="0 0 32 32"><path fill="currentColor" d="M24.943 19.724l-8-8a1.332 1.332 0 00-1.885 0l-8 8a1.332 1.332 0 101.885 1.885L16 14.552l7.057 7.057a1.332 1.332 0 101.885-1.885z"/></symbol>
<symbol id="i-clock" xmlns="http://www.w3.org/2000/svg" viewBox="0 0 14 14"><path d="M7 7L5 5m2 8A6 6 0 117 1a6 6 0 010 12z" stroke="currentColor" stroke-width="1.506" fill="none" stroke-linecap="round"/></symbol>
<symbol id="i-close" xmlns="http://www.w3.org/2000/svg" viewBox="0 0 32 32"><path fill="currentColor" d="M16 13.338L4.686 2.024 2.424 4.286 13.738 15.6 2.424 26.914l2.262 2.262L16 17.862l11.314 11.314 2.262-2.262L18.262 15.6 29.576 4.286l-2.262-2.262L16 13.338z"/></symbol>
<symbol id="i-cookie" xmlns="http://www.w3.org/2000/svg" viewBox="0 0 28 28"><path d="M17.891.548a5.055 5.055 0 002.65 4.29 5.056 5.056 0 007.148 6.217c.204.95.311 1.935.311 2.945 0 7.732-6.268 14-14 14S0 21.732 0 14 6.268 0 14 0c1.35 0 2.656.191 3.891.548zM7.001 14a2 2 0 100-4 2 2 0 000 4zm6.5-5a1.5 1.5 0 100-3 1.5 1.5 0 000 3zM22 19a2 2 0 100-4 2 2 0 000 4zm-12 4a2 2 0 100-4 2 2 0 000 4zm4.5-6a1.5 1.5 0 100-3 1.5 1.5 0 000 3z" fill="currentColor"/></symbol>
<symbol id="i-copy" xmlns="http://www.w3.org/2000/svg" viewBox="0 0 27 32"><path fill="currentColor" d="M19.385 0H2.769C1.246 0 0 1.292 0 2.87v20.09h2.769V2.87h16.616V0zm4.154 5.74H8.308c-1.523 0-2.769 1.292-2.769 2.87V28.7c0 1.578 1.246 2.87 2.769 2.87h15.231c1.523 0 2.769-1.291 2.769-2.87V8.61c0-1.579-1.246-2.87-2.769-2.87zm0 22.96H8.308V8.61h15.231V28.7z"/></symbol>
<symbol id="i-download" xmlns="http://www.w3.org/2000/svg" viewBox="0 0 15 15"><path d="M7.492 0a.536.536 0 00-.527.536v9.423L3.597 6.59a.536.536 0 00-.756.758l4.281 4.284.006.005.001.001.017.016.022.02h.001l.014.01.001.002.026.018.002.001a.253.253 0 00.02.012l.002.001.022.012.002.002a.16.16 0 00.02.008l.003.002a.796.796 0 00.022.01l.003.001.024.008.003.001.02.007.003.001.024.006h.003a.245.245 0 00.022.005h.003a.107.107 0 00.023.004h.003l.025.003h.056a.502.502 0 00.048-.003H7.56h.007-.003a.52.52 0 00.036-.006h-.003a.862.862 0 00.029-.006l-.004.001a.363.363 0 00.024-.006l-.004.001.036-.01h-.004l.023-.008-.003.001a.303.303 0 00.031-.013l-.003.001a.779.779 0 00.044-.022l-.003.002a.014.014 0 00.003-.002h-.002a.423.423 0 00.032-.02l-.001.002.022-.015h-.001a.607.607 0 00.035-.028l.003-.002.024-.023 4.282-4.283a.535.535 0 00-.373-.92l-.017.001h.001a.534.534 0 00-.368.161L8.035 9.96V.537A.535.535 0 007.5 0h-.008zM.542 13.929H.536a.535.535 0 100 1.071h13.929a.535.535 0 100-1.071H.543z" fill="currentColor"/></symbol>
<symbol id="i-edit" xmlns="http://www.w3.org/2000/svg" viewBox="0 0 16 16"><path d="M13.25 7.25l-7.434 7.434a.225.225 0 01-.16.066h-4.18a.225.225 0 01-.225-.225v-4.182c0-.06.024-.117.066-.159L8.75 2.75m4.5 4.5l1.72-1.72a.75.75 0 000-1.06l-3.44-3.44a.75.75 0 00-1.06 0L8.75 2.75m4.5 4.5l-4.5-4.5" stroke="currentColor" stroke-width="1.5" fill="none"/></symbol>
<symbol id="i-eye-close" xmlns="http://www.w3.org/2000/svg" viewBox="0 0 480 480"><g fill="currentColor"><path d="M5.9 5.9C13.7-2 26.3-2 34.1 5.9l440 440c7.8 7.8 7.8 20.5 0 28.3-7.8 7.8-20.5 7.8-28.3 0l-440-440C-2 26.3-2 13.7 5.9 5.9z"/><path d="M184.2 155.6c-27.3 18.1-45.4 49.1-45.4 84.4 0 55.9 45.3 101.2 101.2 101.2 35.2 0 66.3-18 84.4-45.4L295.6 267c-10 20.6-31.1 34.8-55.5 34.8-34.1 0-61.7-27.6-61.7-61.7 0-24.4 14.2-45.5 34.8-55.5l-29-29zm108 51.4c-4.9-7.7-11.5-14.3-19.2-19.2l-47.9-47.9c4.9-.7 9.8-1.1 14.9-1.1 55.9 0 101.2 45.3 101.2 101.2 0 5.1-.4 10-1.1 14.9L292.2 207z"/><path d="M126.2 97.6c-14.1 8.7-27.3 19.1-39.5 31.3l-69.3 69.3c-23.1 23.1-23.1 60.6 0 83.7l69.3 69.3c82.4 82.4 214.7 84.6 299.8 6.7L358.6 330c-69.7 62.6-177 60.4-244-6.6l-69.3-69.3c-7.7-7.7-7.7-20.2 0-27.9l69.3-69.3c12.3-12.3 26-22.4 40.5-30.3l-28.9-29zM387 301.8l47.8-47.8c7.7-7.7 7.7-20.2 0-27.9l-69.3-69.3c-46.1-46.1-111.1-61.5-169.9-46.4L164.2 79c77.1-28.7 167.2-12.1 229.2 49.9l69.3 69.3c23.1 23.1 23.1 60.6 0 83.7l-47.8 47.8-27.9-27.9z"/></g></symbol>
<symbol id="i-eye" xmlns="http://www.w3.org/2000/svg" viewBox="0 0 472.9 297.5"><path fill="currentColor" d="M235.4 0C156.2.8 80 48.5 6.6 135.1c-2.5 2.1-4.4 4.8-5.4 7.9-1.4 3.7-1.5 7.7-.3 11.5s3.6 7 6.9 9.2c73 85.8 148.9 133 227.7 133.8 79.7.8 157.5-46.1 232.8-136.8.2-.3.5-.5.7-.8.1-.1.1-.2.2-.2.2-.2.4-.5.5-.7.2-.3.4-.5.5-.8.2-.3.3-.5.5-.8l.3-.6c.1-.3.3-.6.4-.9.1-.3.2-.5.3-.8l.3-.9c.1-.2.2-.5.2-.7l.3-1.2c0-.1 0-.2.1-.3v-.2c.1-.3.1-.6.1-.9 0-.4.1-.8.1-1.1v-1.5c0-.3 0-.6-.1-.9 0-.3-.1-.5-.1-.8 0-.3-.1-.7-.2-1 0-.2-.1-.5-.2-.7-.1-.2-.1-.5-.2-.7-.1-.4-.2-.7-.3-1-.1-.2-.2-.5-.3-.7-.1-.2-.2-.5-.3-.7l-.6-1.2c0-.1-.1-.1-.1-.2 0 0 0-.1-.1-.1-.2-.4-.4-.7-.6-1.1-.1-.2-.2-.4-.4-.5-.2-.3-.5-.6-.7-.9l-.1-.1c0-.1-.1-.1-.1-.2l-.1-.1C393.1 46.3 315.2-.8 235.4 0zm.4 35c63-.6 128.3 35 196.6 113.8-68.3 78.8-133.6 114.3-196.6 113.7C172.9 261.9 108 225 41 148.8 108 72.6 172.9 35.6 235.8 35zm.8 17.5c-52.9 0-96.2 43.3-96.2 96.2s43.3 96.2 96.2 96.2 96.2-43.3 96.2-96.2-43.2-96.2-96.2-96.2zm0 35c34 0 61.3 27.2 61.3 61.2S270.6 210 236.6 210s-61.2-27.3-61.2-61.3 27.2-61.2 61.2-61.2z"/></symbol>
<symbol id="i-facebook-outline" xmlns="http://www.w3.org/2000/svg" viewBox="0 0 11 20"><path fill="none" stroke="currentColor" stroke-linejoin="round" d="M7.066 18.988v-8.2h2.748l.418-3.2H7.066V5.546c0-.927.255-1.554 1.589-1.554h1.693V1.128A23.868 23.868 0 007.878 1C5.43 1 3.76 2.496 3.76 5.233v2.355H1v3.2h2.76V19h3.306v-.012z"/></symbol>
<symbol id="i-facebook" xmlns="http://www.w3.org/2000/svg" viewBox="0 0 32 32"><path fill="currentColor" d="M19 6h5V0h-5c-3.86 0-7 3.14-7 7v3H8v6h4v16h6V16h5l1-6h-6V7c0-.542.458-1 1-1z"/></symbol>
<symbol id="i-file" xmlns="http://www.w3.org/2000/svg" viewBox="0 0 14 18"><path d="M12.833 7.333h.625a.625.625 0 00-.183-.442l-.442.442zM7 1.5l.442-.442A.625.625 0 007 .875V1.5zm2.5 8.958a.625.625 0 000-1.25v1.25zm-5.833-1.25a.625.625 0 000 1.25v-1.25zm4.166 4.584a.625.625 0 000-1.25v1.25zm-4.166-1.25a.625.625 0 000 1.25v-1.25zM4.5 7.125a.625.625 0 000-1.25v1.25zm-.833-1.25a.625.625 0 000 1.25v-1.25zm7.5 10H2.833v1.25h8.334v-1.25zm-9.375-1.042V3.167H.542v11.666h1.25zm10.416-7.5v7.5h1.25v-7.5h-1.25zM2.833 2.125H7V.875H2.833v1.25zm10.442 4.766L7.442 1.058l-.884.884 5.833 5.833.884-.884zM6.375 1.5v5.417h1.25V1.5h-1.25zm1.042 6.458h5.416v-1.25H7.417v1.25zm-4.584 7.917a1.042 1.042 0 01-1.041-1.042H.542a2.292 2.292 0 002.291 2.292v-1.25zm8.334 1.25a2.292 2.292 0 002.291-2.292h-1.25c0 .576-.466 1.042-1.041 1.042v1.25zM6.375 6.917c0 .575.466 1.041 1.042 1.041v-1.25c.115 0 .208.094.208.209h-1.25zm-4.583-3.75c0-.576.466-1.042 1.041-1.042V.875A2.292 2.292 0 00.542 3.167h1.25zM9.5 9.208H3.667v1.25H9.5v-1.25zm-1.667 3.334H3.667v1.25h4.166v-1.25zM4.5 5.875h-.833v1.25H4.5v-1.25z" fill="currentColor"/></symbol>
<symbol id="i-filters" xmlns="http://www.w3.org/2000/svg" viewBox="0 0 40 32"><path fill="currentColor" d="M1.527 7.676h10.858c.545 2.099 2.444 3.661 4.718 3.661s4.173-1.562 4.718-3.661h16.277c.673 0 1.219-.544 1.219-1.215s-.546-1.216-1.219-1.216H21.821c-.545-2.099-2.444-3.661-4.718-3.661s-4.173 1.562-4.718 3.661H1.527c-.673 0-1.219.544-1.219 1.216s.546 1.216 1.219 1.216zm15.576-3.66c1.352 0 2.452 1.097 2.452 2.445s-1.1 2.445-2.452 2.445c-1.352 0-2.452-1.097-2.452-2.445s1.1-2.445 2.452-2.445zm20.995 10.982h-2.611c-.545-2.099-2.444-3.661-4.718-3.661s-4.173 1.562-4.718 3.661H1.526c-.673 0-1.219.544-1.219 1.215s.546 1.215 1.219 1.215h24.525c.545 2.099 2.444 3.661 4.718 3.661s4.173-1.562 4.718-3.661h2.611c.673 0 1.219-.544 1.219-1.215s-.546-1.216-1.219-1.216zm-7.328 3.661c-1.352 0-2.452-1.097-2.452-2.445s1.1-2.445 2.452-2.445c1.352 0 2.452 1.097 2.452 2.445s-1.1 2.445-2.452 2.445zm7.328 5.665h-23.62c-.545-2.099-2.444-3.661-4.716-3.661-2.274 0-4.173 1.562-4.718 3.661H1.527c-.673 0-1.219.544-1.219 1.215s.546 1.215 1.219 1.215h3.517c.545 2.099 2.444 3.661 4.718 3.661 2.272 0 4.171-1.562 4.716-3.661h23.62c.673 0 1.219-.544 1.219-1.215s-.546-1.215-1.219-1.215zm-28.336 3.66c-1.352 0-2.452-1.097-2.452-2.445a2.451 2.451 0 014.903 0c0 1.348-1.1 2.445-2.451 2.445z"/></symbol>
<symbol id="i-home" xmlns="http://www.w3.org/2000/svg" viewBox="0 0 22 21"><path fill="none" stroke="currentColor" stroke-linecap="round" stroke-linejoin="round" stroke-width="1.5" d="M4 10l.43 7.18A3 3 0 007.426 20h7.15a3 3 0 002.994-2.82L18 10M1 9l8.75-7a2 2 0 012.5 0L21 9m-8 5a2 2 0 11-4 0 2 2 0 014 0z"/></symbol>
<symbol id="i-info" xmlns="http://www.w3.org/2000/svg" viewBox="0 0 25 26"><g transform="translate(0 .67)" fill="currentColor" fill-rule="evenodd"><circle opacity=".2" cx="12.5" cy="12.5" r="12.5"/><path d="M13.677 7c.809 0 1.456.663 1.456 1.467 0 .803-.667 1.466-1.456 1.466-.81 0-1.477-.663-1.477-1.486 0-.804.667-1.447 1.477-1.447zm1.444 9.81a.938.938 0 01-.209.338c-.543.535-1.211.852-2.005.852-.376 0-.732 0-1.108-.06-.605-.079-1.378-.792-1.274-1.545l.25-1.546c.168-.892.335-1.804.502-2.696 0-.06.021-.119.021-.178 0-.377-.125-.516-.522-.555a4.402 4.402 0 01-.502-.08c-.188-.06-.292-.218-.271-.356.02-.159.125-.258.334-.298.104-.02.23-.02.355-.02h2.883c.355 0 .564.16.564.496 0 .278-.042.555-.104.833-.188 1.03-.397 2.041-.585 3.072-.063.337-.147.674-.188 1.01-.021.16 0 .338.042.496.062.218.23.337.46.317.187-.02.375-.079.563-.158.147-.06.272-.159.418-.198.25-.08.439.059.376.277z"/></g></symbol>
<symbol id="i-instagram" xmlns="http://www.w3.org/2000/svg" viewBox="0 0 32 32"><path fill="currentColor" d="M16 2.881c4.275 0 4.781.019 6.462.094 1.563.069 2.406.331 2.969.55a4.952 4.952 0 011.837 1.194 5.015 5.015 0 011.2 1.838c.219.563.481 1.412.55 2.969.075 1.688.094 2.194.094 6.463s-.019 4.781-.094 6.463c-.069 1.563-.331 2.406-.55 2.969a4.94 4.94 0 01-1.194 1.837 5.02 5.02 0 01-1.837 1.2c-.563.219-1.413.481-2.969.55-1.688.075-2.194.094-6.463.094s-4.781-.019-6.463-.094c-1.563-.069-2.406-.331-2.969-.55a4.952 4.952 0 01-1.838-1.194 5.02 5.02 0 01-1.2-1.837c-.219-.563-.481-1.413-.55-2.969-.075-1.688-.094-2.194-.094-6.463s.019-4.781.094-6.463c.069-1.563.331-2.406.55-2.969a4.964 4.964 0 011.194-1.838 5.015 5.015 0 011.838-1.2c.563-.219 1.412-.481 2.969-.55 1.681-.075 2.188-.094 6.463-.094zM16 0c-4.344 0-4.887.019-6.594.094-1.7.075-2.869.35-3.881.744-1.056.412-1.95.956-2.837 1.85a7.833 7.833 0 00-1.85 2.831C.444 6.538.169 7.7.094 9.4.019 11.113 0 11.656 0 16s.019 4.887.094 6.594c.075 1.7.35 2.869.744 3.881.413 1.056.956 1.95 1.85 2.837a7.82 7.82 0 002.831 1.844c1.019.394 2.181.669 3.881.744 1.706.075 2.25.094 6.594.094s4.888-.019 6.594-.094c1.7-.075 2.869-.35 3.881-.744 1.05-.406 1.944-.956 2.831-1.844s1.438-1.781 1.844-2.831c.394-1.019.669-2.181.744-3.881.075-1.706.094-2.25.094-6.594s-.019-4.887-.094-6.594c-.075-1.7-.35-2.869-.744-3.881a7.506 7.506 0 00-1.831-2.844A7.82 7.82 0 0026.482.843C25.463.449 24.301.174 22.601.099c-1.712-.081-2.256-.1-6.6-.1zm0 7.781c-4.537 0-8.219 3.681-8.219 8.219s3.681 8.219 8.219 8.219 8.219-3.681 8.219-8.219A8.221 8.221 0 0016 7.781zm0 13.55a5.331 5.331 0 110-10.663 5.331 5.331 0 010 10.663zM26.462 7.456a1.919 1.919 0 11-3.838 0 1.919 1.919 0 013.838 0z"/></symbol>
<symbol id="i-link" xmlns="http://www.w3.org/2000/svg" viewBox="0 0 14 14"><path fill="currentColor" d="M11.354 6.203a.625.625 0 10.884.884l-.884-.884zm.764.12l-.442-.442.442.442zM7.611 1.815l-.442-.442.442.442zM5.193 4.233l.442.442-.442-.442zm.366 4.786a.625.625 0 00.884-.884l-.884.884zM2.579 7.73a.625.625 0 10-.884-.884l.884.884zm-.764-.12l-.442-.442.442.442zm4.508 4.507l-.442-.441.442.441zM8.74 9.701l.442.442L8.74 9.7zm0-3.536l.442-.442-.442.442zm-.366-1.25a.625.625 0 00-.884.884l.884-.884zm-6.56 7.203l-.442.442.442-.442zm10.423-5.031l.322-.322-.884-.884-.322.322.884.884zm-5.07-5.714L4.752 3.791l.884.884 2.418-2.418-.884-.884zM4.752 8.211l.808.808.884-.884-.808-.808-.884.884zm0-4.42a3.125 3.125 0 000 4.42l.884-.884a1.875 1.875 0 010-2.652l-.884-.884zm7.81-2.418a3.812 3.812 0 00-5.392 0l.884.884c1-1 2.623-1 3.623 0l.884-.884zm0 5.392a3.812 3.812 0 000-5.392l-.885.884c1.001 1.001 1.001 2.623 0 3.624l.884.884zm-10.866.082l-.322.322.884.884.322-.322-.884-.884zm5.07 5.713l2.418-2.417-.884-.884-2.418 2.418.884.883zm2.418-6.837l-.808-.808-.884.884.808.808.884-.884zm0 4.42a3.125 3.125 0 000-4.42l-.884.884c.732.732.732 1.92 0 2.652l.884.884zm-7.81 2.417a3.812 3.812 0 005.392 0l-.884-.883c-1 1-2.623 1-3.624 0l-.884.883zm0-5.391a3.812 3.812 0 000 5.391l.884-.883c-1-1.001-1-2.623 0-3.624l-.884-.884z"/></symbol>
<symbol id="i-linkedin" xmlns="http://www.w3.org/2000/svg" viewBox="0 0 32 32"><path fill="currentColor" d="M12 12h5.535v2.837h.079c.77-1.381 2.655-2.837 5.464-2.837C28.92 12 30 15.637 30 20.367V30h-5.769v-8.54c0-2.037-.042-4.657-3.001-4.657-3.005 0-3.463 2.218-3.463 4.509V30H12V12zM2 12h6v18H2V12zM8 7a3 3 0 11-6 0 3 3 0 016 0z"/></symbol>
<symbol id="i-logout" xmlns="http://www.w3.org/2000/svg" viewBox="0 0 20 14"><path d="M13.538 3.692a.615.615 0 01-1.23 0V1.538a.308.308 0 00-.31-.307H1.54a.309.309 0 00-.31.31v10.457c0 .172.138.31.31.31h10.457c.17 0 .31-.14.31-.308V9.846a.615.615 0 111.23 0V12a1.54 1.54 0 01-1.54 1.538H1.54A1.54 1.54 0 010 11.998V1.54C0 .69.69 0 1.54 0h10.458c.851 0 1.54.688 1.54 1.538v2.154zm6.237 3.606l-3.634 3.588c-.58.58-1.45-.29-.87-.868l2.425-2.42c.12-.118.078-.215-.092-.215h-6.692a.615.615 0 110-1.228h6.692c.17 0 .212-.097.092-.216L15.27 3.521c-.58-.58.29-1.448.87-.869l3.63 3.565c.305.3.306.783.005 1.08z" fill="currentColor"/></symbol>
<symbol id="i-mail" xmlns="http://www.w3.org/2000/svg" viewBox="0 0 16 12"><path fill="none" stroke="currentColor" d="M14.75 1.5L8.498 7.057a.75.75 0 01-.996 0L1.25 1.5M5.75 6L.5 11.25m15 0L10.25 6M2 11.25h12a1.5 1.5 0 001.5-1.5v-7.5A1.5 1.5 0 0014 .75H2a1.5 1.5 0 00-1.5 1.5v7.5a1.5 1.5 0 001.5 1.5z"/></symbol>
<symbol id="i-minus-outline" xmlns="http://www.w3.org/2000/svg" viewBox="0 0 24 24"><path d="M16 12H8m4 11C5.925 23 1 18.075 1 12S5.925 1 12 1s11 4.925 11 11-4.925 11-11 11z" stroke="currentColor" stroke-width="1.5" fill="none" stroke-linecap="round" stroke-linejoin="round"/></symbol>
<symbol id="i-no-results" xmlns="http://www.w3.org/2000/svg" viewBox="0 0 150 156"><g transform="translate(6 6)" fill="none" fill-rule="evenodd"><ellipse fill="currentColor" cx="57.237" cy="144.862" rx="49.625" ry="5.138"/><path d="M97.412 97.258L138 137.782m-24.353-81.048c0 31.333-25.44 56.733-56.823 56.733S0 88.067 0 56.734 25.44 0 56.824 0c31.382 0 56.823 25.4 56.823 56.734zM42.64 41.84l14.704 14.68m0 0L72.048 71.2M57.344 56.52l14.704-14.68M57.344 56.52L42.641 71.2" stroke="currentColor" stroke-linecap="round" stroke-linejoin="round" stroke-width="11.028"/></g></symbol>
<symbol id="i-notification" xmlns="http://www.w3.org/2000/svg" viewBox="0 0 19 19"><path fill="none" stroke="currentColor" stroke-linecap="round" stroke-width="1.5" d="M16.5 10v4.167a3.333 3.333 0 01-3.333 3.333H4.833A3.333 3.333 0 011.5 14.167V5.833A3.333 3.333 0 014.833 2.5H9m5.833 4.167a2.5 2.5 0 110-5 2.5 2.5 0 010 5z"/></symbol>
<symbol id="i-phone" xmlns="http://www.w3.org/2000/svg" viewBox="0 0 32 32"><path fill="currentColor" d="M30.667 23.227a4 4 0 00-3.464-4.031 15.48 15.48 0 01-3.448-.861 4.055 4.055 0 00-1.792-.232 3.976 3.976 0 00-2.425 1.14l-.96.96a19.786 19.786 0 01-6.111-6.119l.968-.968c.429-.44.751-.968.943-1.541a3.988 3.988 0 00-.052-2.681 15.473 15.473 0 01-.859-3.46 4.027 4.027 0 00-1.284-2.405A3.976 3.976 0 009.48 2.001H5.485A3.997 3.997 0 001.499 6.37c.4 4.101 1.82 8.324 4.288 12.136 2.003 3.217 4.864 6.164 8.397 8.408 3.424 2.263 7.579 3.816 12.115 4.308a3.989 3.989 0 003.208-1.166 3.99 3.99 0 001.16-2.828zm-2.667 0v4a1.334 1.334 0 01-1.328 1.344c-4.199-.448-7.948-1.855-11.017-3.883-3.237-2.057-5.812-4.716-7.603-7.592-2.263-3.493-3.54-7.308-3.899-10.984-.032-.357.085-.701.305-.965s.537-.44.904-.473l4.117-.007c.361-.004.676.125.916.341.227.205.384.488.431.811a18 18 0 001.009 4.033c.108.288.107.596.013.877a1.399 1.399 0 01-.323.527l-1.683 1.681a1.335 1.335 0 00-.216 1.601c2.112 3.713 5.119 6.609 8.508 8.504a1.336 1.336 0 001.593-.221l1.693-1.693c.221-.219.503-.343.797-.372.203-.02.413.007.612.08 1.363.508 2.76.848 4.045 1.005a1.3 1.3 0 01.82.473c.196.241.308.549.301.909z"/></symbol>
<symbol id="i-picture" xmlns="http://www.w3.org/2000/svg" viewBox="0 0 40 32"><path fill="currentColor" d="M36.884 31.495H3.621c-1.937 0-3.537-1.6-3.537-3.537V4.211c0-1.937 1.6-3.537 3.537-3.537h33.263c1.937 0 3.537 1.6 3.537 3.537v23.747c0 1.937-1.6 3.537-3.537 3.537zM3.537 2.947a1.15 1.15 0 00-1.179 1.179v23.747a1.15 1.15 0 001.179 1.179H36.8a1.15 1.15 0 001.179-1.179V4.126A1.15 1.15 0 0036.8 2.947H3.537zm22.652 11.79c-2.611 0-4.632-2.105-4.632-4.632s2.105-4.632 4.632-4.632c2.526 0 4.632 2.105 4.632 4.632s-2.105 4.632-4.632 4.632zm0-7.158c-1.347 0-2.442 1.095-2.442 2.442s1.095 2.442 2.442 2.442c1.347 0 2.442-1.095 2.442-2.442s-1.095-2.442-2.442-2.442zm6.316 23.495L13.052 12.8 1.936 23.074l-1.516-1.6L13.052 9.769 34.02 29.474l-1.516 1.6zm6.063-6.063l-6.484-5.221-5.389 4.463-1.432-1.768 6.821-5.558 7.832 6.4-1.347 1.684z"/></symbol>
<symbol id="i-play-alt" xmlns="http://www.w3.org/2000/svg" viewBox="0 0 16 16"><path d="M14.422 9.789L2.894 15.553A2 2 0 010 13.763V2.237A2 2 0 012.894.447l11.528 5.764a2 2 0 010 3.578z" fill="currentColor" fill-rule="evenodd"/></symbol>
<symbol id="i-play" xmlns="http://www.w3.org/2000/svg" viewBox="0 0 11 11"><path d="M9.856 5.057a1.396 1.396 0 01-.702 1.695h0l-6.528 3.264c-.346.173-.729.19-1.069.076A1.396 1.396 0 01.6 8.764h0V2.236c0-.387.157-.737.41-.99A1.396 1.396 0 012.626.984h0l6.528 3.264c.346.173.589.47.702.81z" stroke="currentColor" stroke-width="1.2" fill="none"/></symbol>
<symbol id="i-plus-alt" xmlns="http://www.w3.org/2000/svg" viewBox="0 0 24 24"><path d="M12 0C5.373 0 0 5.373 0 12s5.373 12 12 12 12-5.373 12-12S18.627 0 12 0zm.75 7a.75.75 0 00-1.5 0v4.25H7a.75.75 0 000 1.5h4.25V17a.75.75 0 001.5 0v-4.25H17a.75.75 0 000-1.5h-4.25V7z" fill="currentColor" fill-rule="evenodd"/></symbol>
<symbol id="i-plus-outline" xmlns="http://www.w3.org/2000/svg" viewBox="0 0 24 24"><path d="M12 12V8m0 4v4m0-4h4m-4 0H8m4 11C5.925 23 1 18.075 1 12S5.925 1 12 1s11 4.925 11 11-4.925 11-11 11z" stroke="currentColor" stroke-width="1.5" fill="none" stroke-linecap="round" stroke-linejoin="round"/></symbol>
<symbol id="i-plus" xmlns="http://www.w3.org/2000/svg" viewBox="0 0 32 32"><path fill="currentColor" d="M1.185 16c0 .917.744 1.558 1.662 1.558h11.596v11.596c0 .917.64 1.661 1.558 1.661s1.558-.744 1.558-1.661V17.558h11.596c.918 0 1.662-.64 1.662-1.558s-.744-1.558-1.662-1.558H17.559V2.845c0-.917-.64-1.662-1.558-1.662s-1.558.744-1.558 1.662v11.597H2.847c-.917 0-1.662.64-1.662 1.558z"/></symbol>
<symbol id="i-quote" xmlns="http://www.w3.org/2000/svg" viewBox="0 0 86 66"><path d="M20.6.3C14.767.3 9.95 2.4 6.15 6.6 2.483 10.667.65 16.15.65 23.05c0 10.433 4.2 19.917 12.6 28.45 4.333 4.467 10.633 9.05 18.9 13.75h1.05l2-3.8c-5.967-4.067-10.433-7.6-13.4-10.6-5.267-5.267-7.9-10.267-7.9-15l1-3.25c.667-.667 1.683-1 3.05-1l2.2.2c.7.133 1.383.2 2.05.2 3.933 0 7.25-1.367 9.95-4.1 2.967-2.7 4.45-6.35 4.45-10.95 0-5-1.483-9-4.45-12C29.183 1.85 25.333.3 20.6.3m64.75 16.65c0-5-1.483-9-4.45-12C77.933 1.85 74.067.3 69.3.3c-5.8 0-10.6 2.1-14.4 6.3-3.667 4.067-5.5 9.55-5.5 16.45 0 10.433 4.2 19.917 12.6 28.45 4.333 4.467 10.633 9.05 18.9 13.75h1.05l2-3.8c-5.967-4.067-10.433-7.6-13.4-10.6-5.3-5.267-7.95-10.267-7.95-15l1.05-3.25c.667-.667 1.683-1 3.05-1l2.2.2c.7.133 1.383.2 2.05.2 3.933 0 7.25-1.367 9.95-4.1 2.967-2.7 4.45-6.35 4.45-10.95m-31.5 48.3H52.8l.25.45.8-.45m-48.75 0H4.05l.25.45.8-.45z" fill="currentColor" fill-rule="evenodd"/></symbol>
<symbol id="i-refresh" xmlns="http://www.w3.org/2000/svg" viewBox="0 0 16 18"><path d="M14 16.5h-4v-4m-8-11h4v4m4.603 10A7.002 7.002 0 0010 2.29M6 15.71a7.003 7.003 0 01-.263-13.336" stroke="currentColor" stroke-width="1.365" fill="none" stroke-linecap="round" stroke-linejoin="round"/></symbol>
<symbol id="i-save" xmlns="http://www.w3.org/2000/svg" viewBox="0 0 18 18"><g fill="currentColor"><path d="M17.662 2.7L14.467.202A.9.9 0 0013.905 0H3.15A3.15 3.15 0 000 3.15v11.7A3.15 3.15 0 003.15 18h11.7A3.15 3.15 0 0018 14.85V3.42a.901.901 0 00-.338-.72zM5.288 1.8h6.524v3.937H5.288V1.8zM16.2 14.85a1.35 1.35 0 01-1.35 1.35H3.15a1.35 1.35 0 01-1.35-1.35V3.15A1.35 1.35 0 013.15 1.8h.338v4.838a.9.9 0 00.9.9h8.325a.9.9 0 00.9-.9V1.8L16.2 3.848V14.85z"/><path d="M8.55 8.55a3.15 3.15 0 100 6.3 3.15 3.15 0 000-6.3zm0 4.5a1.35 1.35 0 110-2.7 1.35 1.35 0 010 2.7z"/></g></symbol>
<symbol id="i-search" xmlns="http://www.w3.org/2000/svg" viewBox="0 0 20 20"><path d="M13.5 13.5l5 5m-3-10a7 7 0 11-14 0 7 7 0 0114 0z" stroke="currentColor" stroke-width="1.5" fill="none" stroke-linecap="round" stroke-linejoin="round"/></symbol>
<symbol id="i-share" xmlns="http://www.w3.org/2000/svg" viewBox="0 0 16 14"><path fill="currentColor" d="M8 4.787l.056.56.507-.05v-.51H8zM8 9.25h.563v-.51l-.508-.05L8 9.25zm-6.747 2.773l-.562-.017.562.017zm.135.047l-.44-.349.44.35zm13.746-4.777l.351.44-.351-.44zM7.438 1.78v3.007h1.125V1.78H7.438zm.506 2.447a8.064 8.064 0 00-7.253 7.78l1.125.033a6.939 6.939 0 016.24-6.694l-.112-1.12zM1.83 12.42a6.962 6.962 0 016.116-2.61l.11-1.12a8.087 8.087 0 00-7.108 3.031l.882.699zm5.609-3.17v2.97h1.125V9.25H7.438zm1.523 3.702l6.524-5.22-.702-.878-6.525 5.22.703.878zm6.524-6.684l-6.524-5.22-.703.879 6.525 5.22.702-.88zM7.438 12.22a.938.938 0 001.523.732l-.703-.879a.188.188 0 01.305.147H7.438zM.69 12.006c-.02.648.778.868 1.138.414l-.882-.699c.27-.34.884-.184.869.319L.69 12.006zm14.794-4.274a.938.938 0 000-1.464l-.702.878a.187.187 0 010-.292l.702.878zM8.563 1.78a.188.188 0 01-.305.147l.703-.879a.938.938 0 00-1.523.732h1.125z"/></symbol>
<symbol id="i-triangle" preserveAspectRatio="xMidYMin meet" xmlns="http://www.w3.org/2000/svg" viewBox="0 0 13 6"><path d="M4.222 4.343L.5 0h12L8.778 4.343a3 3 0 01-4.556 0z" fill="currentColor" fill-rule="evenodd"/></symbol>
<symbol id="i-twitter" xmlns="http://www.w3.org/2000/svg" viewBox="0 0 32 32"><path fill="currentColor" d="M32 7.075a12.941 12.941 0 01-3.769 1.031 6.601 6.601 0 002.887-3.631 13.21 13.21 0 01-4.169 1.594A6.565 6.565 0 0022.155 4a6.563 6.563 0 00-6.563 6.563c0 .512.056 1.012.169 1.494A18.635 18.635 0 012.23 5.195a6.56 6.56 0 00-.887 3.3 6.557 6.557 0 002.919 5.463 6.565 6.565 0 01-2.975-.819v.081a6.565 6.565 0 005.269 6.437 6.574 6.574 0 01-2.968.112 6.588 6.588 0 006.131 4.563 13.17 13.17 0 01-9.725 2.719 18.568 18.568 0 0010.069 2.95c12.075 0 18.681-10.006 18.681-18.681 0-.287-.006-.569-.019-.85A13.216 13.216 0 0032 7.076z"/></symbol>
<symbol id="i-upload" xmlns="http://www.w3.org/2000/svg" viewBox="0 0 18 16"><g fill="currentColor"><path d="M.692 9.6c-.365.004-.7.333-.692.694v5.022c0 .358.33.684.692.684h15.683c.362 0 .692-.326.692-.684v-5.022c.005-.362-.327-.694-.692-.694-.366 0-.697.332-.692.694v4.338h-14.3v-4.338a.706.706 0 00-.69-.694z"/><path d="M9.065 0a.812.812 0 00-.495.193L4.49 3.985c-.234.257-.33.75-.06 1.037.267.283.783.275 1.05-.007l2.865-2.667v9.74c0 .394.323.712.72.712.398 0 .72-.318.72-.711v-9.74l2.866 2.666c.246.243.78.288 1.05.007.269-.28.183-.79-.06-1.037L9.56.193A.698.698 0 009.064 0z"/></g></symbol>
<symbol id="i-user" xmlns="http://www.w3.org/2000/svg" viewBox="0 0 18 18"><path d="M1.313 9a7.687 7.687 0 1113.514 5.015 2.76 2.76 0 00.227-1.028c0-1.09-1.374-1.78-2.418-2.166-.866 1.42-2.118 2.492-3.636 2.492-1.516 0-2.767-1.069-3.633-2.486-1.016.387-2.337 1.075-2.337 2.16 0 .367.098.775.268 1.169A7.66 7.66 0 011.313 9zM9 .188a8.812 8.812 0 100 17.624A8.812 8.812 0 009 .188zm3.71 5.62c0 1.663-.411 3.31-1.096 4.526-.764 1.21-1.692 1.854-2.614 1.854-.922 0-1.85-.644-2.614-1.854C5.7 9.118 5.29 7.471 5.29 5.808 5.291 4.28 6.92 3 9 3s3.71 1.279 3.71 2.808z" fill="currentColor" fill-rule="evenodd"/></symbol>
<symbol id="i-user-alt" xmlns="http://www.w3.org/2000/svg" viewBox="0 0 18 18"><path d="M11.172 12.06a.625.625 0 10-.304 1.213l.304-1.212zm-4.04 1.213a.625.625 0 10-.304-1.212l.304 1.212zm1.868.45v-.626.625zM16.708 9A7.708 7.708 0 019 16.708v1.25A8.958 8.958 0 0017.958 9h-1.25zM9 16.708A7.708 7.708 0 011.292 9H.042A8.958 8.958 0 009 17.958v-1.25zM1.292 9A7.708 7.708 0 019 1.292V.042A8.958 8.958 0 00.042 9h1.25zM9 1.292A7.708 7.708 0 0116.708 9h1.25A8.958 8.958 0 009 .042v1.25zm4.375 13.97v.405h1.25v-.405h-1.25zm-8.75.405v-.405h-1.25v.405h1.25zm6.243-2.394c.81.203 1.46.526 1.894.897.434.37.613.75.613 1.092h1.25c0-.817-.434-1.515-1.05-2.042-.618-.527-1.457-.922-2.403-1.16l-.304 1.213zm-4.04-1.212c-.946.237-1.785.632-2.402 1.159-.617.527-1.051 1.225-1.051 2.042h1.25c0-.342.179-.721.613-1.092.434-.37 1.084-.694 1.894-.897l-.304-1.212zM9 14.347c1.409 0 2.509-1.102 3.218-2.435.728-1.367 1.157-3.164 1.157-4.969h-1.25c0 1.625-.39 3.217-1.01 4.382-.639 1.2-1.413 1.772-2.115 1.772v1.25zm4.375-7.404c0-2.072-2.073-3.568-4.375-3.568v1.25c1.896 0 3.125 1.19 3.125 2.318h1.25zM9 3.375c-2.302 0-4.375 1.496-4.375 3.568h1.25c0-1.127 1.229-2.318 3.125-2.318v-1.25zM4.625 6.943c0 1.805.43 3.603 1.157 4.97.709 1.332 1.81 2.434 3.218 2.434v-1.25c-.702 0-1.476-.572-2.115-1.772-.62-1.165-1.01-2.757-1.01-4.382h-1.25z" fill="currentColor"/></symbol>
<symbol id="i-user-alt-2" xmlns="http://www.w3.org/2000/svg" viewBox="0 0 18 20"><path fill="none" stroke="currentColor" stroke-width="1.5" d="M12.333 10.833c.255.139 4.167 1.11 4.167 3.433 0 1.526-.731 2.914-2.194 3.35-1.263.378-3.047.717-5.306.717s-4.043-.34-5.306-.716C2.23 17.18 1.5 15.792 1.5 14.266c0-2.327 3.915-3.296 4.167-3.433M9 13.333c2.814 0 5-4.306 5-8.716C14 2.561 11.799.833 9 .833S4 2.561 4 4.617c0 4.41 2.186 8.716 5 8.716z"/></symbol>
<symbol id="i-whatsapp" xmlns="http://www.w3.org/2000/svg" viewBox="0 0 20 20"><path fill="currentColor" stroke="currentColor" stroke-width=".2" d="M10 1c-4.966 0-9 4.034-9 9a8.93 8.93 0 001.168 4.386l-1.153 4.117a.391.391 0 00.47.486l4.293-1.064A8.936 8.936 0 0010 19c4.966 0 9-4.034 9-9s-4.034-9-9-9zm0 .783A8.212 8.212 0 0118.217 10 8.212 8.212 0 0110 18.217c-1.456 0-2.82-.38-4.006-1.043a.391.391 0 00-.285-.038l-3.76.932 1.008-3.597a.391.391 0 00-.039-.305A8.17 8.17 0 011.783 10 8.212 8.212 0 0110 1.783zM6.73 5.304c-.251 0-.61.094-.904.41-.176.191-.913.909-.913 2.17 0 1.316.912 2.45 1.023 2.597h0a12.392 12.392 0 001.175 1.441c.707.744 1.699 1.603 2.93 2.128.567.241 1.015.387 1.354.494.628.197 1.2.167 1.63.104.322-.048.676-.202 1.026-.424.35-.221.693-.497.844-.915.109-.3.164-.578.184-.806.01-.114.01-.215.003-.308s0-.165-.086-.307c-.182-.3-.388-.307-.604-.414-.12-.059-.46-.225-.801-.388-.342-.163-.637-.307-.819-.371-.115-.042-.255-.101-.458-.078-.202.023-.402.169-.519.341-.11.164-.554.688-.69.842l-.043-.022c-.168-.083-.373-.153-.676-.313a5.59 5.59 0 01-1.098-.762h0c-.617-.545-1.05-1.227-1.186-1.457.009-.01-.002.003.018-.017h0c.14-.138.264-.302.368-.422.148-.17.214-.321.285-.462.14-.28.062-.588-.02-.75v-.001c.006.011-.044-.099-.097-.225L8.46 6.92l-.407-.977h0c-.115-.273-.27-.469-.473-.563-.202-.095-.381-.068-.389-.068h0a10.252 10.252 0 00-.461-.009zm0 .783c.15 0 .3.002.424.008.128.006.12.007.095-.005-.025-.012.01-.015.082.157l.407.975.197.471c.055.13.085.203.12.272h0v.001c.034.067.03.024.019.048-.083.164-.094.204-.177.3-.127.147-.257.31-.326.378-.06.059-.168.15-.236.33-.068.18-.036.428.073.613.144.245.622 1.022 1.363 1.675.467.412.902.684 1.25.867.347.184.63.29.694.322a.88.88 0 00.506.11.762.762 0 00.46-.258h.001c.14-.16.555-.633.754-.925.008.003.005 0 .072.025h0c.03.011.409.18.746.341.338.161.68.328.791.383.16.08.237.131.256.132a.92.92 0 01-.002.128 2.49 2.49 0 01-.14.608c-.041.114-.256.349-.526.52-.271.171-.6.292-.723.31-.367.054-.802.074-1.28-.076a13.078 13.078 0 01-1.281-.467c-1.087-.463-2.01-1.252-2.67-1.946-.329-.347-.593-.67-.781-.915-.188-.244-.27-.37-.338-.46v-.001c-.122-.16-.864-1.193-.864-2.123 0-.985.457-1.371.704-1.638.13-.14.272-.16.33-.16z"/></symbol>
</svg>