<svg width="32" height="42" xmlns="http://www.w3.org/2000/svg"><path d="M13.982 3.6145c0-1.114.903-2.018 2.018-2.018 1.013 0 1.852.747 1.996 1.72l.022.298v34.771c0 1.114-.903 2.018-2.018 2.018-1.013 0-1.852-.747-1.996-1.72l-.022-.298V3.6145zM1.534 18.0805c-.709-.709-.78-1.815-.213-2.604l.213-.25 13.039-13.039c.709-.709 1.815-.78 2.604-.213l.25.213 13.039 13.039c.788.788.788 2.066 0 2.854-.709.709-1.815.78-2.604.213l-.25-.213-11.614-11.609-11.61 11.609c-.709.709-1.815.78-2.604.213l-.25-.213z" fill="currentColor"/></svg>
