<svg width="24" height="24" xmlns="http://www.w3.org/2000/svg">
    <g fill="currentColor" fill-rule="nonzero">
        <path fill="currentColor" d="M23.75 12C23.75 5.51 18.49.25 12 .25S.25 5.51.25 12 5.51 23.75 12 23.75 23.75 18.49 23.75 12zm-1.5 0c0 5.66-4.59 10.25-10.25 10.25S1.75 17.66 1.75 12 6.34 1.75 12 1.75 22.25 6.34 22.25 12z"/>
        <path fill="currentColor" d="M14.28 7.47a.75.75 0 01.073.976l-.073.084L10.811 12l3.47 3.47a.75.75 0 01.072.976l-.073.084a.75.75 0 01-.976.073l-.084-.073-4-4a.75.75 0 01-.073-.976l.073-.084 4-4a.75.75 0 011.06 0z"/>
    </g>
</svg>