<svg width="13" height="13" viewBox="0 0 13 13" fill="none" xmlns="http://www.w3.org/2000/svg">
<path fill-rule="evenodd" clip-rule="evenodd" d="M0.574424 0.996594C0.576305 0.720458 0.801683 0.498131 1.07782 0.500012L12.0034 0.574445C12.136 0.575349 12.2628 0.628893 12.356 0.723298C12.4491 0.817703 12.5009 0.945237 12.5 1.07784L12.4255 12.0034C12.4236 12.2795 12.1982 12.5019 11.9221 12.5C11.646 12.4981 11.4236 12.2727 11.4255 11.9966L11.4918 2.27811L1.35114 12.2815C1.15455 12.4754 0.837973 12.4733 0.644046 12.2767C0.450119 12.0801 0.452276 11.7635 0.648864 11.5696L10.7895 1.5662L1.07101 1.49999C0.79487 1.49811 0.572543 1.27273 0.574424 0.996594Z" fill="currentColor"/>
</svg>
