<svg width="42" height="32" xmlns="http://www.w3.org/2000/svg"><path d="M4.8 18.257c-1.114 0-2.018-.903-2.018-2.018 0-1.013.747-1.852 1.72-1.996l.298-.022h34.771c1.114 0 2.018.903 2.018 2.018 0 1.013-.747 1.852-1.72 1.996l-.298.022H4.8zm14.466 12.448c-.709.709-1.815.78-2.604.213l-.25-.213L3.373 17.666c-.709-.709-.78-1.815-.213-2.604l.213-.25L16.412 1.773c.788-.788 2.066-.788 2.854 0 .709.709.78 1.815.213 2.604l-.213.25L7.657 16.241l11.609 11.61c.709.709.78 1.815.213 2.604l-.213.25z" fill="currentColor"/></svg>