<svg width="14" height="16" xmlns="http://www.w3.org/2000/svg">
  <path
    d="M7.225 11.895l.338-.526-.338.526zm-.45 0l-.338-.526.338.526zm-4.966 3.192l.338.526-.338-.526zm10.382 0l-.338.526.338-.526zM3.25 1.958h7.5V.708h-7.5v1.25zm8.958 1.459v11.32h1.25V3.417h-1.25zM1.792 14.737V3.417H.542v11.32h1.25zm10.737-.175l-4.966-3.193-.676 1.052 4.966 3.192.676-1.051zm-6.092-3.193L1.47 14.562l.676 1.051 4.966-3.192-.676-1.052zm1.126 0a1.042 1.042 0 00-1.126 0l.676 1.052a.208.208 0 01-.226 0l.676-1.052zM.542 14.737c0 .824.911 1.322 1.605.876l-.676-1.051c.138-.09.32.01.32.175H.542zm11.666 0c0-.165.183-.265.321-.175l-.676 1.051a1.042 1.042 0 001.605-.876h-1.25zM10.75 1.958c.805 0 1.458.653 1.458 1.459h1.25A2.708 2.708 0 0010.75.708v1.25zM3.25.708A2.708 2.708 0 00.542 3.417h1.25c0-.806.653-1.459 1.458-1.459V.708z"
    fill="currentColor" fill-rule="nonzero" />
</svg>