<svg xmlns="http://www.w3.org/2000/svg" viewBox="0 0 480 480">
  <g fill="currentColor">
    <path
      d="M5.9 5.9C13.7-2 26.3-2 34.1 5.9l440 440c7.8 7.8 7.8 20.5 0 28.3-7.8 7.8-20.5 7.8-28.3 0l-440-440C-2 26.3-2 13.7 5.9 5.9z" />
    <path
      d="M184.2 155.6c-27.3 18.1-45.4 49.1-45.4 84.4 0 55.9 45.3 101.2 101.2 101.2 35.2 0 66.3-18 84.4-45.4L295.6 267c-10 20.6-31.1 34.8-55.5 34.8-34.1 0-61.7-27.6-61.7-61.7 0-24.4 14.2-45.5 34.8-55.5l-29-29zM292.2 207c-4.9-7.7-11.5-14.3-19.2-19.2l-47.9-47.9c4.9-.7 9.8-1.1 14.9-1.1 55.9 0 101.2 45.3 101.2 101.2 0 5.1-.4 10-1.1 14.9L292.2 207z" />
    <path
      d="M126.2 97.6c-14.1 8.7-27.3 19.1-39.5 31.3l-69.3 69.3c-23.1 23.1-23.1 60.6 0 83.7l69.3 69.3c82.4 82.4 214.7 84.6 299.8 6.7L358.6 330c-69.7 62.6-177 60.4-244-6.6l-69.3-69.3c-7.7-7.7-7.7-20.2 0-27.9l69.3-69.3c12.3-12.3 26-22.4 40.5-30.3l-28.9-29zM387 301.8l47.8-47.8c7.7-7.7 7.7-20.2 0-27.9l-69.3-69.3c-46.1-46.1-111.1-61.5-169.9-46.4L164.2 79c77.1-28.7 167.2-12.1 229.2 49.9l69.3 69.3c23.1 23.1 23.1 60.6 0 83.7l-47.8 47.8-27.9-27.9z" />
  </g>
</svg>