<svg xmlns="http://www.w3.org/2000/svg" viewBox="0 0 472.9 297.5">
  <path fill="currentColor"
    d="M235.4 0C156.2.8 80 48.5 6.6 135.1c-2.5 2.1-4.4 4.8-5.4 7.9-1.4 3.7-1.5 7.7-.3 11.5s3.6 7 6.9 9.2c73 85.8 148.9 133 227.7 133.8 79.7.8 157.5-46.1 232.8-136.8.2-.3.5-.5.7-.8.1-.1.1-.2.2-.2.2-.2.4-.5.5-.7.2-.3.4-.5.5-.8.2-.3.3-.5.5-.8l.3-.6c.1-.3.3-.6.4-.9.1-.3.2-.5.3-.8l.3-.9c.1-.2.2-.5.2-.7l.3-1.2c0-.1 0-.2.1-.3v-.2c.1-.3.1-.6.1-.9 0-.4.1-.8.1-1.1v-.4-1.1c0-.3 0-.6-.1-.9 0-.3-.1-.5-.1-.8 0-.3-.1-.7-.2-1 0-.2-.1-.5-.2-.7-.1-.2-.1-.5-.2-.7-.1-.4-.2-.7-.3-1-.1-.2-.2-.5-.3-.7-.1-.2-.2-.5-.3-.7l-.6-1.2c0-.1-.1-.1-.1-.2 0 0 0-.1-.1-.1-.2-.4-.4-.7-.6-1.1-.1-.2-.2-.4-.4-.5-.2-.3-.5-.6-.7-.9l-.1-.1c0-.1-.1-.1-.1-.2l-.1-.1C393.1 46.3 315.2-.8 235.4 0zm.4 35c63-.6 128.3 35 196.6 113.8-68.3 78.8-133.6 114.3-196.6 113.7C172.9 261.9 108 225 41 148.8 108 72.6 172.9 35.6 235.8 35zm.8 17.5c-52.9 0-96.2 43.3-96.2 96.2s43.3 96.2 96.2 96.2 96.2-43.3 96.2-96.2-43.2-96.2-96.2-96.2zm0 35c34 0 61.3 27.2 61.3 61.2S270.6 210 236.6 210s-61.2-27.3-61.2-61.3 27.2-61.2 61.2-61.2z" />
</svg>