<svg width="14" height="18" xmlns="http://www.w3.org/2000/svg"><path d="M12.833 7.333h.625a.625.625 0 00-.183-.442l-.442.442zM7 1.5l.442-.442A.625.625 0 007 .875V1.5zm2.5 8.958a.625.625 0 000-1.25v1.25zm-5.833-1.25a.625.625 0 000 1.25v-1.25zm4.166 4.584a.625.625 0 000-1.25v1.25zm-4.166-1.25a.625.625 0 000 1.25v-1.25zM4.5 7.125a.625.625 0 000-1.25v1.25zm-.833-1.25a.625.625 0 000 1.25v-1.25zm7.5 10H2.833v1.25h8.334v-1.25zm-9.375-1.042V3.167H.542v11.666h1.25zm10.416-7.5v7.5h1.25v-7.5h-1.25zM2.833 2.125H7V.875H2.833v1.25zm10.442 4.766L7.442 1.058l-.884.884 5.833 5.833.884-.884zM6.375 1.5v5.417h1.25V1.5h-1.25zm1.042 6.458h5.416v-1.25H7.417v1.25zm-4.584 7.917a1.042 1.042 0 01-1.041-1.042H.542a2.292 2.292 0 002.291 2.292v-1.25zm8.334 1.25a2.292 2.292 0 002.291-2.292h-1.25c0 .576-.466 1.042-1.041 1.042v1.25zM6.375 6.917c0 .575.466 1.041 1.042 1.041v-1.25c.115 0 .208.094.208.209h-1.25zm-4.583-3.75c0-.576.466-1.042 1.041-1.042V.875A2.292 2.292 0 00.542 3.167h1.25zM9.5 9.208H3.667v1.25H9.5v-1.25zm-1.667 3.334H3.667v1.25h4.166v-1.25zM4.5 5.875h-.833v1.25H4.5v-1.25z" fill="currentColor" fill-rule="nonzero"/></svg>