<svg version="1.1" xmlns="http://www.w3.org/2000/svg" width="40" height="32" viewBox="0 0 40 32">
<path fill="currentColor" d="M1.527 7.676h10.858c0.545 2.099 2.444 3.661 4.718 3.661s4.173-1.562 4.718-3.661h16.277c0.673 0 1.219-0.544 1.219-1.215s-0.546-1.216-1.219-1.216h-16.277c-0.545-2.099-2.444-3.661-4.718-3.661s-4.173 1.562-4.718 3.661h-10.858c-0.673 0-1.219 0.544-1.219 1.216s0.546 1.216 1.219 1.216zM17.103 4.016c1.352 0 2.452 1.097 2.452 2.445s-1.1 2.445-2.452 2.445c-1.352 0-2.452-1.097-2.452-2.445s1.1-2.445 2.452-2.445zM38.098 14.998h-2.611c-0.545-2.099-2.444-3.661-4.718-3.661s-4.173 1.562-4.718 3.661h-24.525c-0.673 0-1.219 0.544-1.219 1.215s0.546 1.215 1.219 1.215h24.525c0.545 2.099 2.444 3.661 4.718 3.661s4.173-1.562 4.718-3.661h2.611c0.673 0 1.219-0.544 1.219-1.215s-0.546-1.216-1.219-1.216zM30.77 18.659c-1.352 0-2.452-1.097-2.452-2.445s1.1-2.445 2.452-2.445c1.352 0 2.452 1.097 2.452 2.445s-1.1 2.445-2.452 2.445zM38.098 24.324h-23.62c-0.545-2.099-2.444-3.661-4.716-3.661-2.274 0-4.173 1.562-4.718 3.661h-3.517c-0.673 0-1.219 0.544-1.219 1.215s0.546 1.215 1.219 1.215h3.517c0.545 2.099 2.444 3.661 4.718 3.661 2.272 0 4.171-1.562 4.716-3.661h23.62c0.673 0 1.219-0.544 1.219-1.215s-0.546-1.215-1.219-1.215zM9.762 27.984c-1.352 0-2.452-1.097-2.452-2.445s1.1-2.445 2.452-2.445c1.351 0 2.451 1.097 2.451 2.445s-1.1 2.445-2.451 2.445z"></path>
</svg>
