<svg xmlns="http://www.w3.org/2000/svg" width="22" height="21" viewBox="0 0 22 21"><path fill="none" stroke="currentColor" stroke-linecap="round" stroke-linejoin="round" stroke-width="1.5" d="M5.00000002,11.0003 L5.43078002,18.1799001 C5.52583002,19.7642001 6.83832003,21.0003 8.42540004,21.0003 L15.5746001,21.0003 C17.1617001,21.0003 18.4742001,19.7642001 18.5692001,18.1799001 L19,11.0003 M2.00000001,10.0003 L10.7506,2.99979001 C11.481,2.41544001 12.5190001,2.41544001 13.2494001,2.99979001 L22,10.0003 M14,15.0003001 C14,16.1048001 13.1046001,17.0003001 12,17.0003001 C10.8954,17.0003001 10,16.1048001 10,15.0003001 C10,13.8957001 10.8954,13.0003001 12,13.0003001 C13.1046001,13.0003001 14,13.8957001 14,15.0003001 Z" transform="translate(-1 -1)"/></svg>