<svg width="25" height="26" xmlns="http://www.w3.org/2000/svg">
  <g transform="translate(0 .67)" fill="currentColor" fill-rule="evenodd">
    <circle opacity=".2" cx="12.5" cy="12.5" r="12.5" />
    <path
      d="M13.677 7c.809 0 1.456.663 1.456 1.467 0 .803-.667 1.466-1.456 1.466-.81 0-1.477-.663-1.477-1.486 0-.804.667-1.447 1.477-1.447zM15.121 16.81a.938.938 0 01-.209.338c-.543.535-1.211.852-2.005.852-.376 0-.732 0-1.108-.06-.605-.079-1.378-.792-1.274-1.545l.25-1.546c.168-.892.335-1.804.502-2.696 0-.06.021-.119.021-.178 0-.377-.125-.516-.522-.555a4.402 4.402 0 01-.502-.08c-.188-.06-.292-.218-.271-.356.02-.159.125-.258.334-.298.104-.02.23-.02.355-.02h2.883c.355 0 .564.16.564.496 0 .278-.042.555-.104.833-.188 1.03-.397 2.041-.585 3.072-.063.337-.147.674-.188 1.01-.021.16 0 .338.042.496.062.218.23.337.46.317.187-.02.375-.079.563-.158.147-.06.272-.159.418-.198.25-.08.439.059.376.277z" />
  </g>
</svg>