<svg xmlns="http://www.w3.org/2000/svg" width="14" height="14" viewBox="0 0 14 14"><path fill="currentColor" d="M14.3544167,9.20300004 C14.1103334,9.44708337 14.1103334,9.84283337 14.3544167,10.0868334 C14.5985001,10.3309167 14.9941667,10.3309167 15.2382501,10.0868334 L14.3544167,9.20300004 Z M15.1183334,9.32300004 L14.6763334,8.88100004 L14.6763334,8.88100004 L15.1183334,9.32300004 Z M10.61075,4.81538335 L10.16875,4.37344168 L10.16875,4.37344168 L10.61075,4.81538335 Z M8.19290003,7.23322503 L8.63483337,7.6751667 L8.63483337,7.6751667 L8.19290003,7.23322503 Z M8.5589167,12.0186667 C8.80300004,12.2627501 9.19875004,12.2627501 9.44283337,12.0186667 C9.68691671,11.7745834 9.68691671,11.3789167 9.44283337,11.1348334 L8.5589167,12.0186667 Z M5.57919169,10.7308334 C5.82327502,10.48675 5.82327502,10.0910834 5.57919169,9.84700004 C5.33511669,9.60291671 4.93939169,9.60291671 4.69530835,9.84700004 L5.57919169,10.7308334 Z M4.81528335,10.6109167 L4.37334168,10.1689167 L4.37334168,10.1689167 L4.81528335,10.6109167 Z M9.32283337,15.1184167 L8.8809167,14.6765001 L8.8809167,14.6765001 L9.32283337,15.1184167 Z M11.7406667,12.7005834 L12.1826667,13.1425834 L12.1826667,13.1425834 L11.7406667,12.7005834 Z M11.7406667,9.16508337 L12.1826667,8.7231667 L12.1826667,8.7231667 L11.7406667,9.16508337 Z M11.3746667,7.91515837 C11.1305834,7.67107503 10.7348334,7.67107503 10.49075,7.91515837 C10.2466667,8.15923337 10.2466667,8.55500004 10.49075,8.79900004 L11.3746667,7.91515837 Z M4.81528335,15.1184167 L4.37334168,15.5604167 L4.37334168,15.5604167 L4.81528335,15.1184167 Z M15.2382501,10.0868334 L15.5602501,9.76491671 L14.6763334,8.88100004 L14.3544167,9.20300004 L15.2382501,10.0868334 Z M10.16875,4.37344168 L7.75095837,6.79128336 L8.63483337,7.6751667 L11.0526667,5.25732502 L10.16875,4.37344168 Z M7.75095837,11.2106667 L8.5589167,12.0186667 L9.44283337,11.1348334 L8.63483337,10.3268334 L7.75095837,11.2106667 Z M7.75095837,6.79128336 C6.53056669,8.0116667 6.53056669,9.99033337 7.75095837,11.2106667 L8.63483337,10.3268334 C7.90260837,9.59458337 7.90260837,8.4074167 8.63483337,7.6751667 L7.75095837,6.79128336 Z M15.5602501,4.37344168 C14.0714167,2.88463335 11.6575834,2.88463335 10.16875,4.37344168 L11.0526667,5.25732502 C12.0533334,4.25667502 13.6757501,4.25667502 14.6763334,5.25732502 L15.5602501,4.37344168 Z M15.5602501,9.76491671 C17.0490834,8.2760917 17.0490834,5.86225836 15.5602501,4.37344168 L14.6763334,5.25732502 C15.6770001,6.25798336 15.6770001,7.8803667 14.6763334,8.88100004 L15.5602501,9.76491671 Z M4.69530835,9.84700004 L4.37334168,10.1689167 L5.25722502,11.0528334 L5.57919169,10.7308334 L4.69530835,9.84700004 Z M9.76483337,15.5604167 L12.1826667,13.1425834 L11.29875,12.2586667 L8.8809167,14.6765001 L9.76483337,15.5604167 Z M12.1826667,8.7231667 L11.3746667,7.91515837 L10.49075,8.79900004 L11.29875,9.60700004 L12.1826667,8.7231667 Z M12.1826667,13.1425834 C13.4030001,11.9221667 13.4030001,9.94350004 12.1826667,8.7231667 L11.29875,9.60700004 C12.0310001,10.33925 12.0310001,11.5264167 11.29875,12.2586667 L12.1826667,13.1425834 Z M4.37334168,15.5604167 C5.86215002,17.0492501 8.2759917,17.0492501 9.76483337,15.5604167 L8.8809167,14.6765001 C7.88025837,15.6771667 6.25787503,15.6771667 5.25722502,14.6765001 L4.37334168,15.5604167 Z M4.37334168,10.1689167 C2.88453335,11.65775 2.88453335,14.0715834 4.37334168,15.5604167 L5.25722502,14.6765001 C4.25656668,13.6758334 4.25657502,12.0535001 5.25722502,11.0528334 L4.37334168,10.1689167 Z" transform="translate(-3 -3)"/></svg>