<svg width="20" height="14" xmlns="http://www.w3.org/2000/svg">
  <path
    d="M13.538 3.692a.615.615 0 01-1.23 0V1.538a.308.308 0 00-.31-.307H1.54a.309.309 0 00-.31.31v10.457c0 .172.138.31.31.31h10.457c.17 0 .31-.14.31-.308V9.846a.615.615 0 111.23 0V12a1.54 1.54 0 01-1.54 1.538H1.54A1.54 1.54 0 010 11.998V1.54C0 .69.69 0 1.54 0h10.458c.851 0 1.54.688 1.54 1.538v2.154zm6.237 3.606l-3.634 3.588c-.58.58-1.45-.29-.87-.868l2.425-2.42c.12-.118.078-.215-.092-.215h-6.692a.615.615 0 110-1.228h6.692c.17 0 .212-.097.092-.216L15.27 3.521c-.58-.58.29-1.448.87-.869l3.63 3.565c.305.3.306.783.005 1.08z"
    fill="currentColor" fill-rule="nonzero" />
</svg>