<svg version="1.1" xmlns="http://www.w3.org/2000/svg" width="40" height="32" viewBox="0 0 40 32">
<path fill="currentColor" d="M36.884 31.495h-33.263c-1.937 0-3.537-1.6-3.537-3.537v-23.747c0-1.937 1.6-3.537 3.537-3.537h33.263c1.937 0 3.537 1.6 3.537 3.537v23.747c0 1.937-1.6 3.537-3.537 3.537v0zM3.537 2.947c-0.674 0-1.179 0.505-1.179 1.179v23.747c0 0.674 0.505 1.179 1.179 1.179h33.263c0.674 0 1.179-0.505 1.179-1.179v-23.747c0-0.674-0.505-1.179-1.179-1.179h-33.263zM26.189 14.737c-2.611 0-4.632-2.105-4.632-4.632s2.105-4.632 4.632-4.632c2.526 0 4.632 2.105 4.632 4.632s-2.105 4.632-4.632 4.632v0zM26.189 7.579c-1.347 0-2.442 1.095-2.442 2.442s1.095 2.442 2.442 2.442c1.347 0 2.442-1.095 2.442-2.442s-1.095-2.442-2.442-2.442v0zM32.505 31.074l-19.453-18.274-11.116 10.274-1.516-1.6 12.632-11.705 20.968 19.705-1.516 1.6zM38.568 25.011l-6.484-5.221-5.389 4.463-1.432-1.768 6.821-5.558 7.832 6.4-1.347 1.684z"></path>
</svg>
