<svg width="86" height="66" xmlns="http://www.w3.org/2000/svg"><path d="M20.6.3C14.767.3 9.95 2.4 6.15 6.6 2.483 10.667.65 16.15.65 23.05c0 10.433 4.2 19.917 12.6 28.45 4.333 4.467 10.633 9.05 18.9 13.75h1.05l2-3.8c-5.967-4.067-10.433-7.6-13.4-10.6-5.267-5.267-7.9-10.267-7.9-15l1-3.25c.667-.667 1.683-1 3.05-1l2.2.2c.7.133 1.383.2 2.05.2 3.933 0 7.25-1.367 9.95-4.1 2.967-2.7 4.45-6.35 4.45-10.95 0-5-1.483-9-4.45-12C29.183 1.85 25.333.3 20.6.3m64.75 16.65c0-5-1.483-9-4.45-12C77.933 1.85 74.067.3 69.3.3c-5.8 0-10.6 2.1-14.4 6.3-3.667 4.067-5.5 9.55-5.5 16.45 0 10.433 4.2 19.917 12.6 28.45 4.333 4.467 10.633 9.05 18.9 13.75h1.05l2-3.8c-5.967-4.067-10.433-7.6-13.4-10.6-5.3-5.267-7.95-10.267-7.95-15l1.05-3.25c.667-.667 1.683-1 3.05-1l2.2.2c.7.133 1.383.2 2.05.2 3.933 0 7.25-1.367 9.95-4.1 2.967-2.7 4.45-6.35 4.45-10.95m-31.5 48.3H52.8l.25.45.8-.45m-48.75 0H4.05l.25.45.8-.45z" fill="currentColor" fill-rule="evenodd"/></svg>