<svg xmlns="http://www.w3.org/2000/svg" width="18" height="18" viewBox="0 0 18 18"><g fill="currentColor"><path d="M17.6623457,2.69992797 L14.4672676,0.20246115 C14.3084398,0.0728226933 14.1099041,0.00141426693 13.9047751,0 L3.14991798,0 C2.31449604,0 1.51330579,0.331938894 0.922527923,0.922527923 C0.331950947,1.51326561 -1.77635684e-15,2.31449604 -1.77635684e-15,3.14991798 L-1.77635684e-15,14.8497625 C-1.77635684e-15,15.6851845 0.331938894,16.4863747 0.922527923,17.0771526 C1.51326561,17.6677296 2.31449604,17.9996805 3.14991798,17.9996805 L14.8497625,17.9996805 C15.6851845,17.9996805 16.4863747,17.6677416 17.0771526,17.0771526 C17.6677296,16.4864149 17.9998452,15.6851845 17.9998452,14.8497625 L17.9998452,3.41991439 C18.0050166,3.14055248 17.8804,2.87453771 17.6622493,2.6998436 L17.6623457,2.69992797 Z M5.28751012,1.80002028 L11.8124234,1.80002028 L11.8124234,5.73746798 L5.28751012,5.73746798 L5.28751012,1.80002028 Z M16.1998651,14.8498469 C16.1998651,15.2078413 16.0576711,15.5512349 15.8045213,15.8043967 C15.5513715,16.0575586 15.2079578,16.1997406 14.8499715,16.1997406 L3.1501269,16.1997406 C2.79213255,16.1997406 2.4487389,16.0575465 2.19557708,15.8043967 C1.94241527,15.551247 1.80023323,15.2078332 1.80023323,14.8498469 L1.80023323,3.15000235 C1.80023323,2.792008 1.94242732,2.44861435 2.19557708,2.19545253 C2.44872684,1.94229072 2.79214059,1.80010868 3.1501269,1.80010868 L3.48755813,1.80010868 L3.48771507,6.63754441 C3.48771507,6.87625821 3.58251113,7.10525695 3.75122675,7.27396453 C3.92009906,7.44268015 4.14892504,7.5376329 4.38764686,7.5376329 L12.7125363,7.5376329 C12.9512501,7.5376329 13.1802488,7.44268015 13.3489564,7.27396453 C13.5178287,7.10524891 13.6126248,6.87626624 13.6126248,6.63754441 L13.6126248,1.80010868 L16.20001,3.84762165 L16.1998651,14.8498469 Z"/><path d="M8.54996677,8.54985026 C7.71454484,8.54985026 6.91335459,8.88163246 6.32257672,9.47237818 C5.73179886,10.0631239 5.39988809,10.8643463 5.39988809,11.6997682 C5.39988809,12.5351902 5.73182698,13.3363804 6.32257672,13.9271583 C6.91332646,14.5179362 7.71454484,14.8498469 8.54996677,14.8498469 C9.38538871,14.8498469 10.186579,14.517908 10.7773568,13.9271583 C11.3681347,13.3364085 11.6998848,12.5351902 11.6998848,11.6997682 C11.6998848,10.8643463 11.3681026,10.063156 10.7773568,9.47237818 C10.1866111,8.88160032 9.38538871,8.54985026 8.54996677,8.54985026 Z M8.54996677,13.0497905 C8.19197242,13.0497905 7.84857877,12.9075964 7.59541696,12.6542859 C7.34210648,12.4011321 7.19991239,12.0577224 7.19991239,11.6997361 C7.19991239,11.3417417 7.34210648,10.9983481 7.59541696,10.7451863 C7.84857074,10.4920325 8.19198046,10.3498424 8.54996677,10.3498424 C8.90796113,10.3498424 9.25135478,10.4920365 9.50451659,10.7451863 C9.75767037,10.9983401 9.89986045,11.3417498 9.89986045,11.6997361 C9.89986045,12.0577304 9.75766636,12.4011241 9.50451659,12.6542859 C9.25136281,12.9075964 8.90795309,13.0497905 8.54996677,13.0497905 Z"/></g></svg>