<svg xmlns="http://www.w3.org/2000/svg" width="16" height="14" viewBox="0 0 16 14"><path fill="currentColor" d="M9.00000004,6.78662253 L9.05557504,7.34637003 L9.56250004,7.29605253 L9.56250004,6.78662253 L9.00000004,6.78662253 Z M9.00000004,11.25 L9.56250004,11.25 L9.56250004,10.73985 L9.05475004,10.6902 L9.00000004,11.25 Z M2.25336751,14.0232001 L1.69111501,14.0064751 L2.25336751,14.0232001 Z M2.38791001,14.0704501 L1.94706001,13.7211001 L2.38791001,14.0704501 Z M16.1340001,9.29280004 L16.4853751,9.73207504 L16.1340001,9.29280004 Z M8.43750004,3.78023252 L8.43750004,6.78662253 L9.56250004,6.78662253 L9.56250004,3.78023252 L8.43750004,3.78023252 Z M8.94442504,6.22687503 C4.94883752,6.62348253 1.81201501,9.93592504 1.69111501,14.0064751 L2.81562001,14.0398501 C2.91961501,10.538475 5.61889502,7.68750003 9.05557504,7.34637003 L8.94442504,6.22687503 Z M2.82876751,14.4198001 C4.25962502,12.6142501 6.55105503,11.575725 8.94525004,11.8098 L9.05475004,10.6902 C6.26676753,10.4175 3.60690752,11.626575 1.94706001,13.7211001 L2.82876751,14.4198001 Z M8.43750004,11.25 L8.43750004,14.2197751 L9.56250004,14.2197751 L9.56250004,11.25 L8.43750004,11.25 Z M9.96067504,14.9518501 L16.4853751,9.73207504 L15.7825501,8.85360004 L9.25785004,14.0733751 L9.96067504,14.9518501 Z M16.4853751,8.26792503 L9.96067504,3.04817251 L9.25785004,3.92664752 L15.7825501,9.14640004 L16.4853751,8.26792503 Z M8.43750004,14.2197751 C8.43750004,15.0058501 9.34680004,15.4428751 9.96067504,14.9518501 L9.25785004,14.0733751 C9.38062504,13.9751251 9.56250004,14.0625751 9.56250004,14.2197751 L8.43750004,14.2197751 Z M1.69111501,14.0064751 C1.67188501,14.6538751 2.46886501,14.8739251 2.82876751,14.4198001 L1.94706001,13.7211001 C2.21725501,13.3801501 2.83056001,13.5368251 2.81562001,14.0398501 L1.69111501,14.0064751 Z M16.4853751,9.73207504 C16.9545001,9.35677504 16.9545001,8.64322504 16.4853751,8.26792503 L15.7825501,9.14640004 C15.6887251,9.07132504 15.6887251,8.92867504 15.7825501,8.85360004 L16.4853751,9.73207504 Z M9.56250004,3.78023252 C9.56250004,3.93745502 9.38062504,4.02486002 9.25785004,3.92664752 L9.96067504,3.04817251 C9.34680004,2.55709501 8.43750004,2.99413501 8.43750004,3.78023252 L9.56250004,3.78023252 Z" transform="translate(-1 -2)"/></svg>