<svg width="18" height="16" xmlns="http://www.w3.org/2000/svg">
  <g fill="currentColor" fill-rule="nonzero">
    <path
      d="M.692 9.6c-.365.004-.7.333-.692.694v5.022c0 .358.33.684.692.684h15.683c.362 0 .692-.326.692-.684v-5.022c.005-.362-.327-.694-.692-.694-.366 0-.697.332-.692.694v4.338h-14.3v-4.338A.706.706 0 00.693 9.6z" />
    <path
      d="M9.065 0a.812.812 0 00-.495.193L4.49 3.985c-.234.257-.33.75-.06 1.037.267.283.783.275 1.05-.007l2.865-2.667v9.74c0 .394.323.712.72.712.398 0 .72-.318.72-.711v-9.74l2.866 2.666c.246.243.78.288 1.05.007.269-.28.183-.79-.06-1.037L9.56.193A.698.698 0 009.064 0z" />
  </g>
</svg>