<svg width="18" height="18" xmlns="http://www.w3.org/2000/svg">
  <path
    d="M1.313 9a7.687 7.687 0 1113.514 5.015 2.76 2.76 0 00.227-1.028c0-1.09-1.374-1.78-2.418-2.166-.866 1.42-2.118 2.492-3.636 2.492-1.516 0-2.767-1.069-3.633-2.486-1.016.387-2.337 1.075-2.337 2.16 0 .367.098.775.268 1.169A7.66 7.66 0 011.313 9zM9 .188a8.812 8.812 0 100 17.624A8.812 8.812 0 009 .188zm3.71 5.62c0 1.663-.411 3.31-1.096 4.526-.764 1.21-1.692 1.854-2.614 1.854-.922 0-1.85-.644-2.614-1.854C5.7 9.118 5.29 7.471 5.29 5.808 5.291 4.28 6.92 3 9 3c2.08 0 3.71 1.279 3.71 2.808z"
    fill="currentColor" fill-rule="evenodd" />
</svg>