<svg xmlns="http://www.w3.org/2000/svg" width="18" height="20" viewBox="0 0 18 20"><path fill="none" stroke="currentColor" stroke-width="1.5" d="M13.3333334,10.8333334 C13.5877501,10.9715834 17.5,11.9439167 17.5,14.2656667 C17.5,15.7920834 16.7689167,17.1797501 15.3062501,17.6165001 C14.0425834,17.9937501 12.2589167,18.3333334 10,18.3333334 C7.7409667,18.3333334 5.95735002,17.9938334 4.69371669,17.6165001 C3.23115835,17.1797501 2.50000001,15.7920834 2.50000001,14.2656667 C2.50000001,11.9391667 6.41483336,10.9699167 6.66666669,10.8333334 M10,13.3333333 C12.8136667,13.3333333 15,9.0269167 15,4.61744169 C15,2.56065001 12.7985834,0.833333337 10,0.833333337 C7.20140003,0.833333337 5.00000002,2.56065001 5.00000002,4.61744169 C5.00000002,9.0269167 7.1863167,13.3333333 10,13.3333333 Z" transform="translate(-1)"/></svg>