<svg width="18" height="18" xmlns="http://www.w3.org/2000/svg">
  <path
    d="M11.172 12.06a.625.625 0 10-.304 1.213l.304-1.212zm-4.04 1.213a.625.625 0 10-.304-1.212l.304 1.212zm1.868.45v-.626.625zM16.708 9A7.708 7.708 0 019 16.708v1.25A8.958 8.958 0 0017.958 9h-1.25zM9 16.708A7.708 7.708 0 011.292 9H.042A8.958 8.958 0 009 17.958v-1.25zM1.292 9A7.708 7.708 0 019 1.292V.042A8.958 8.958 0 00.042 9h1.25zM9 1.292A7.708 7.708 0 0116.708 9h1.25A8.958 8.958 0 009 .042v1.25zm4.375 13.97v.405h1.25v-.405h-1.25zm-8.75.405v-.405h-1.25v.405h1.25zm6.243-2.394c.81.203 1.46.526 1.894.897.434.37.613.75.613 1.092h1.25c0-.817-.434-1.515-1.05-2.042-.618-.527-1.457-.922-2.403-1.16l-.304 1.213zm-4.04-1.212c-.946.237-1.785.632-2.402 1.159-.617.527-1.051 1.225-1.051 2.042h1.25c0-.342.179-.721.613-1.092.434-.37 1.084-.694 1.894-.897l-.304-1.212zM9 14.347c1.409 0 2.509-1.102 3.218-2.435.728-1.367 1.157-3.164 1.157-4.969h-1.25c0 1.625-.39 3.217-1.01 4.382-.639 1.2-1.413 1.772-2.115 1.772v1.25zm4.375-7.404c0-2.072-2.073-3.568-4.375-3.568v1.25c1.896 0 3.125 1.19 3.125 2.318h1.25zM9 3.375c-2.302 0-4.375 1.496-4.375 3.568h1.25c0-1.127 1.229-2.318 3.125-2.318v-1.25zM4.625 6.943c0 1.805.43 3.603 1.157 4.97.709 1.332 1.81 2.434 3.218 2.434v-1.25c-.702 0-1.476-.572-2.115-1.772-.62-1.165-1.01-2.757-1.01-4.382h-1.25z"
    fill="currentColor" fill-rule="nonzero" />
</svg>