<svg xmlns="http://www.w3.org/2000/svg" width="20" height="20" viewBox="0 0 20 20"><path fill="currentColor" stroke="currentColor" stroke-width=".2" d="M9,0 C4.03416548,0 0,4.03416548 0,9 C0,10.5961684 0.437747283,12.0857791 1.16779891,13.3861242 L0.0145210696,17.503227 C-0.022972781,17.6372965 0.0135794157,17.7811911 0.110512028,17.8811135 C0.20744464,17.9810359 0.35016284,18.021941 0.485309113,17.988536 L4.77819313,16.9246773 C6.03963743,17.5981027 7.47101387,18 9,18 C13.9658345,18 18,13.9658345 18,9 C18,4.03416548 13.9658345,0 9,0 Z M9,0.782608696 C13.5428611,0.782608696 17.2173913,4.45713887 17.2173913,9 C17.2173913,13.5428611 13.5428611,17.2173913 9,17.2173913 C7.543575,17.2173913 6.17952561,16.8376833 4.99371613,16.1741677 C4.9069877,16.1257065 4.80507418,16.1120452 4.70864465,16.1359544 L0.94921873,17.0675953 L1.957286,13.4709578 C1.98643393,13.3682491 1.97235353,13.2580905 1.91830844,13.1660155 C1.19766009,11.9440143 0.782608696,10.5222158 0.782608696,9 C0.782608696,4.45713887 4.45713887,0.782608696 9,0.782608696 Z M5.72970443,4.30434783 C5.47886309,4.30434783 5.1206263,4.39767 4.82634157,4.71475878 C4.64958313,4.90521443 3.91304348,5.62285213 3.91304348,6.88451087 C3.91304348,8.19988865 4.82532691,9.33489704 4.9356317,9.48072365 L4.93639591,9.48072365 L4.93639591,9.48148787 C4.92593243,9.46773743 5.07640343,9.68563996 5.27725878,9.946926 C5.47811452,10.208212 5.75898457,10.5513809 6.11183778,10.9228938 C6.81754383,11.6659209 7.80976252,12.5246422 9.04127048,13.049847 C9.6083957,13.2913483 10.0558092,13.4371632 10.394786,13.5435631 C11.0229828,13.7408189 11.595159,13.7108344 12.0249661,13.6475033 C12.3466813,13.6001254 12.7005175,13.4456533 13.0506112,13.2240999 C13.4007057,13.0025465 13.7438178,12.7270651 13.8951258,12.3085088 C14.0035195,12.0084433 14.0586226,11.731147 14.0785497,11.502972 C14.0885123,11.3888845 14.0897782,11.2881921 14.0823708,11.1949728 C14.0749478,11.1017536 14.0828795,11.0303468 13.9960088,10.8877379 C13.8138296,10.588619 13.607512,10.580812 13.3922383,10.4742697 C13.2726283,10.4150727 12.9320847,10.2487809 12.590523,10.0860226 C12.2493455,9.92344696 11.9539252,9.77945987 11.7719937,9.71458904 C11.65705,9.67323443 11.5166958,9.61370296 11.3141982,9.63663378 C11.1117009,9.65956422 10.9117017,9.80566943 10.7952617,9.97826087 C10.6848927,10.1418531 10.2405862,10.6663105 10.1051292,10.8204824 C10.1033292,10.8193868 10.115084,10.824802 10.061566,10.7983186 C9.89403691,10.7154059 9.68914839,10.6449073 9.38595443,10.4849695 C9.08276087,10.3250317 8.70349109,10.0888572 8.28846822,9.72299583 L8.28846822,9.72223161 C7.67075048,9.17841483 7.23806296,8.49565017 7.1015627,8.26630435 C7.11075796,8.25536348 7.100469,8.26861343 7.1199047,8.24949039 L7.1206693,8.24872617 C7.26017517,8.11131809 7.38381091,7.94720387 7.48828135,7.82685117 C7.63640491,7.65620843 7.70177348,7.5057797 7.77258822,7.36523452 C7.91372113,7.0851287 7.83513783,6.77689904 7.75348161,6.61472491 L7.75348161,6.6139607 C7.7591203,6.62517939 7.70931078,6.51527883 7.65565552,6.38850209 C7.60184726,6.26136378 7.53325943,6.096537 7.46000335,5.92077091 C7.31349117,5.56923952 7.14992361,5.17496557 7.05264965,4.94403887 L7.05264965,4.94327426 C6.93805735,4.67126765 6.78302413,4.47531183 6.58033278,4.38077426 C6.37764143,4.28623709 6.1985653,4.31311383 6.19132148,4.31275461 L6.19055687,4.31275461 C6.04591357,4.30608209 5.88718878,4.30434783 5.72970443,4.30434783 Z M5.72970443,5.08695652 C5.88056791,5.08695652 6.02930113,5.08879604 6.15387209,5.09459909 C6.28202191,5.10098517 6.27405143,5.10150991 6.24940552,5.09001339 C6.22436596,5.07833687 6.258339,5.07454513 6.33118226,5.24745235 C6.42642965,5.47356913 6.59080565,5.86927135 6.73777174,6.22189213 C6.81125478,6.39820213 6.8800273,6.56366713 6.93495235,6.69344439 C6.98987778,6.82322165 7.01963883,6.89568065 7.05417809,6.96475878 L7.05417809,6.965523 L7.0549423,6.96628722 C7.08880578,7.03310204 7.08581152,6.99032504 7.07404891,7.01367183 C6.99147235,7.17756104 6.98026735,7.21780161 6.89673913,7.31402843 C6.76955739,7.4605453 6.63982943,7.6239407 6.57116178,7.69157609 C6.51108483,7.75059261 6.40268609,7.84253426 6.33500335,8.02250335 C6.26721691,8.20274791 6.29885465,8.45004913 6.4076087,8.63468061 C6.55240383,8.88049565 7.02955017,9.65712013 7.77105978,10.3099523 C8.23803652,10.7216131 8.67308987,10.9940607 9.02063504,11.1773947 C9.36818061,11.3607286 9.65124822,11.4678027 9.71458904,11.4991509 C9.86499743,11.5735903 10.0293867,11.6313926 10.2205334,11.608441 C10.4116801,11.585491 10.5764791,11.4695135 10.6813859,11.350883 L10.6821501,11.3501187 C10.8217679,11.1918314 11.2366362,10.718111 11.4357166,10.4261208 C11.4441531,10.4290947 11.4413905,10.426786 11.5075577,10.4505773 L11.5075577,10.4513416 L11.5083219,10.4513416 C11.5385306,10.4620985 11.9168945,10.6314523 12.2542458,10.7922044 C12.5915971,10.9529566 12.9340021,11.120038 13.0452617,11.175102 C13.2058272,11.2545681 13.2816964,11.3063013 13.301291,11.3065556 C13.3026151,11.3409845 13.3039534,11.378293 13.2989979,11.4349523 C13.2852749,11.5921143 13.2432652,11.8096533 13.1591371,12.0425443 C13.1179234,12.1565528 12.9032679,12.3916934 12.6325577,12.5630096 C12.3618475,12.7343258 12.0323497,12.8553316 11.9103261,12.8733018 C11.5434376,12.9273617 11.1078282,12.9470975 10.6294156,12.796875 C10.2976967,12.6927532 9.88407587,12.5579723 9.34850543,12.3299084 C8.26231774,11.8666784 7.3391443,11.0784181 6.6796873,10.3840861 C6.34995939,10.0369205 6.08578513,9.71374657 5.89784322,9.46925961 C5.71025191,9.22522852 5.62833704,9.09823852 5.56003722,9.00840678 L5.559273,9.00764257 C5.43803557,8.847315 4.69565217,7.81468083 4.69565217,6.88451087 C4.69565217,5.90008265 5.15289013,5.51404017 5.40030561,5.24745235 C5.53019517,5.10749804 5.67219796,5.08695652 5.72970443,5.08695652 Z" transform="translate(1 1)"/></svg>