<?xml version="1.0" standalone="no"?>
<!DOCTYPE svg PUBLIC "-//W3C//DTD SVG 20010904//EN"
 "http://www.w3.org/TR/2001/REC-SVG-20010904/DTD/svg10.dtd">
<svg version="1.0" xmlns="http://www.w3.org/2000/svg"
 width="128.000000pt" height="128.000000pt" viewBox="0 0 128.000000 128.000000"
 preserveAspectRatio="xMidYMid meet">
<metadata>
Created by potrace 1.14, written by Peter Selinger 2001-2017
</metadata>
<g transform="translate(0.000000,128.000000) scale(0.100000,-0.100000)"
fill="#000000" stroke="none">
<path d="M523 1026 c-104 -34 -204 -123 -251 -224 -24 -50 -27 -69 -27 -162 0
-99 2 -110 32 -171 40 -80 120 -159 200 -197 52 -24 70 -27 163 -27 99 0 110
2 171 32 80 40 159 120 197 200 24 52 27 70 27 163 0 99 -2 110 -32 171 -40
81 -121 160 -200 197 -70 32 -210 41 -280 18z"/>
</g>
</svg>
